%TF.GenerationSoftware,KiCad,Pcbnew,9.0.1*%
%TF.CreationDate,2025-05-03T15:39:39+02:00*%
%TF.ProjectId,RAMdemption,52414d64-656d-4707-9469-6f6e2e6b6963,rev?*%
%TF.SameCoordinates,Original*%
%TF.FileFunction,Legend,Bot*%
%TF.FilePolarity,Positive*%
%FSLAX46Y46*%
G04 Gerber Fmt 4.6, Leading zero omitted, Abs format (unit mm)*
G04 Created by KiCad (PCBNEW 9.0.1) date 2025-05-03 15:39:39*
%MOMM*%
%LPD*%
G01*
G04 APERTURE LIST*
G04 Aperture macros list*
%AMRoundRect*
0 Rectangle with rounded corners*
0 $1 Rounding radius*
0 $2 $3 $4 $5 $6 $7 $8 $9 X,Y pos of 4 corners*
0 Add a 4 corners polygon primitive as box body*
4,1,4,$2,$3,$4,$5,$6,$7,$8,$9,$2,$3,0*
0 Add four circle primitives for the rounded corners*
1,1,$1+$1,$2,$3*
1,1,$1+$1,$4,$5*
1,1,$1+$1,$6,$7*
1,1,$1+$1,$8,$9*
0 Add four rect primitives between the rounded corners*
20,1,$1+$1,$2,$3,$4,$5,0*
20,1,$1+$1,$4,$5,$6,$7,0*
20,1,$1+$1,$6,$7,$8,$9,0*
20,1,$1+$1,$8,$9,$2,$3,0*%
G04 Aperture macros list end*
%ADD10C,0.150000*%
%ADD11C,0.120000*%
%ADD12RoundRect,0.250000X0.475000X-0.337500X0.475000X0.337500X-0.475000X0.337500X-0.475000X-0.337500X0*%
%ADD13C,1.650000*%
%ADD14RoundRect,0.250000X0.337500X0.475000X-0.337500X0.475000X-0.337500X-0.475000X0.337500X-0.475000X0*%
%ADD15R,0.600000X1.600000*%
%ADD16RoundRect,0.250000X-0.475000X0.337500X-0.475000X-0.337500X0.475000X-0.337500X0.475000X0.337500X0*%
%ADD17R,1.600000X0.600000*%
G04 APERTURE END LIST*
D10*
X159618411Y-117253363D02*
X159666031Y-117205744D01*
X159666031Y-117205744D02*
X159713650Y-117062887D01*
X159713650Y-117062887D02*
X159713650Y-116967649D01*
X159713650Y-116967649D02*
X159666031Y-116824792D01*
X159666031Y-116824792D02*
X159570792Y-116729554D01*
X159570792Y-116729554D02*
X159475554Y-116681935D01*
X159475554Y-116681935D02*
X159285078Y-116634316D01*
X159285078Y-116634316D02*
X159142221Y-116634316D01*
X159142221Y-116634316D02*
X158951745Y-116681935D01*
X158951745Y-116681935D02*
X158856507Y-116729554D01*
X158856507Y-116729554D02*
X158761269Y-116824792D01*
X158761269Y-116824792D02*
X158713650Y-116967649D01*
X158713650Y-116967649D02*
X158713650Y-117062887D01*
X158713650Y-117062887D02*
X158761269Y-117205744D01*
X158761269Y-117205744D02*
X158808888Y-117253363D01*
X159713650Y-118205744D02*
X159713650Y-117634316D01*
X159713650Y-117920030D02*
X158713650Y-117920030D01*
X158713650Y-117920030D02*
X158856507Y-117824792D01*
X158856507Y-117824792D02*
X158951745Y-117729554D01*
X158951745Y-117729554D02*
X158999364Y-117634316D01*
X159713650Y-119158125D02*
X159713650Y-118586697D01*
X159713650Y-118872411D02*
X158713650Y-118872411D01*
X158713650Y-118872411D02*
X158856507Y-118777173D01*
X158856507Y-118777173D02*
X158951745Y-118681935D01*
X158951745Y-118681935D02*
X158999364Y-118586697D01*
X183123759Y-117156416D02*
X183171379Y-117108797D01*
X183171379Y-117108797D02*
X183218998Y-116965940D01*
X183218998Y-116965940D02*
X183218998Y-116870702D01*
X183218998Y-116870702D02*
X183171379Y-116727845D01*
X183171379Y-116727845D02*
X183076140Y-116632607D01*
X183076140Y-116632607D02*
X182980902Y-116584988D01*
X182980902Y-116584988D02*
X182790426Y-116537369D01*
X182790426Y-116537369D02*
X182647569Y-116537369D01*
X182647569Y-116537369D02*
X182457093Y-116584988D01*
X182457093Y-116584988D02*
X182361855Y-116632607D01*
X182361855Y-116632607D02*
X182266617Y-116727845D01*
X182266617Y-116727845D02*
X182218998Y-116870702D01*
X182218998Y-116870702D02*
X182218998Y-116965940D01*
X182218998Y-116965940D02*
X182266617Y-117108797D01*
X182266617Y-117108797D02*
X182314236Y-117156416D01*
X183218998Y-118108797D02*
X183218998Y-117537369D01*
X183218998Y-117823083D02*
X182218998Y-117823083D01*
X182218998Y-117823083D02*
X182361855Y-117727845D01*
X182361855Y-117727845D02*
X182457093Y-117632607D01*
X182457093Y-117632607D02*
X182504712Y-117537369D01*
X182218998Y-118727845D02*
X182218998Y-118823083D01*
X182218998Y-118823083D02*
X182266617Y-118918321D01*
X182266617Y-118918321D02*
X182314236Y-118965940D01*
X182314236Y-118965940D02*
X182409474Y-119013559D01*
X182409474Y-119013559D02*
X182599950Y-119061178D01*
X182599950Y-119061178D02*
X182838045Y-119061178D01*
X182838045Y-119061178D02*
X183028521Y-119013559D01*
X183028521Y-119013559D02*
X183123759Y-118965940D01*
X183123759Y-118965940D02*
X183171379Y-118918321D01*
X183171379Y-118918321D02*
X183218998Y-118823083D01*
X183218998Y-118823083D02*
X183218998Y-118727845D01*
X183218998Y-118727845D02*
X183171379Y-118632607D01*
X183171379Y-118632607D02*
X183123759Y-118584988D01*
X183123759Y-118584988D02*
X183028521Y-118537369D01*
X183028521Y-118537369D02*
X182838045Y-118489750D01*
X182838045Y-118489750D02*
X182599950Y-118489750D01*
X182599950Y-118489750D02*
X182409474Y-118537369D01*
X182409474Y-118537369D02*
X182314236Y-118584988D01*
X182314236Y-118584988D02*
X182266617Y-118632607D01*
X182266617Y-118632607D02*
X182218998Y-118727845D01*
X148254057Y-122296528D02*
X148301676Y-122344148D01*
X148301676Y-122344148D02*
X148444533Y-122391767D01*
X148444533Y-122391767D02*
X148539771Y-122391767D01*
X148539771Y-122391767D02*
X148682628Y-122344148D01*
X148682628Y-122344148D02*
X148777866Y-122248909D01*
X148777866Y-122248909D02*
X148825485Y-122153671D01*
X148825485Y-122153671D02*
X148873104Y-121963195D01*
X148873104Y-121963195D02*
X148873104Y-121820338D01*
X148873104Y-121820338D02*
X148825485Y-121629862D01*
X148825485Y-121629862D02*
X148777866Y-121534624D01*
X148777866Y-121534624D02*
X148682628Y-121439386D01*
X148682628Y-121439386D02*
X148539771Y-121391767D01*
X148539771Y-121391767D02*
X148444533Y-121391767D01*
X148444533Y-121391767D02*
X148301676Y-121439386D01*
X148301676Y-121439386D02*
X148254057Y-121487005D01*
X147301676Y-122391767D02*
X147873104Y-122391767D01*
X147587390Y-122391767D02*
X147587390Y-121391767D01*
X147587390Y-121391767D02*
X147682628Y-121534624D01*
X147682628Y-121534624D02*
X147777866Y-121629862D01*
X147777866Y-121629862D02*
X147873104Y-121677481D01*
X146920723Y-121487005D02*
X146873104Y-121439386D01*
X146873104Y-121439386D02*
X146777866Y-121391767D01*
X146777866Y-121391767D02*
X146539771Y-121391767D01*
X146539771Y-121391767D02*
X146444533Y-121439386D01*
X146444533Y-121439386D02*
X146396914Y-121487005D01*
X146396914Y-121487005D02*
X146349295Y-121582243D01*
X146349295Y-121582243D02*
X146349295Y-121677481D01*
X146349295Y-121677481D02*
X146396914Y-121820338D01*
X146396914Y-121820338D02*
X146968342Y-122391767D01*
X146968342Y-122391767D02*
X146349295Y-122391767D01*
X182171419Y-113381705D02*
X182980942Y-113381705D01*
X182980942Y-113381705D02*
X183076180Y-113429324D01*
X183076180Y-113429324D02*
X183123800Y-113476943D01*
X183123800Y-113476943D02*
X183171419Y-113572181D01*
X183171419Y-113572181D02*
X183171419Y-113762657D01*
X183171419Y-113762657D02*
X183123800Y-113857895D01*
X183123800Y-113857895D02*
X183076180Y-113905514D01*
X183076180Y-113905514D02*
X182980942Y-113953133D01*
X182980942Y-113953133D02*
X182171419Y-113953133D01*
X183171419Y-114953133D02*
X183171419Y-114381705D01*
X183171419Y-114667419D02*
X182171419Y-114667419D01*
X182171419Y-114667419D02*
X182314276Y-114572181D01*
X182314276Y-114572181D02*
X182409514Y-114476943D01*
X182409514Y-114476943D02*
X182457133Y-114381705D01*
X182171419Y-115572181D02*
X182171419Y-115667419D01*
X182171419Y-115667419D02*
X182219038Y-115762657D01*
X182219038Y-115762657D02*
X182266657Y-115810276D01*
X182266657Y-115810276D02*
X182361895Y-115857895D01*
X182361895Y-115857895D02*
X182552371Y-115905514D01*
X182552371Y-115905514D02*
X182790466Y-115905514D01*
X182790466Y-115905514D02*
X182980942Y-115857895D01*
X182980942Y-115857895D02*
X183076180Y-115810276D01*
X183076180Y-115810276D02*
X183123800Y-115762657D01*
X183123800Y-115762657D02*
X183171419Y-115667419D01*
X183171419Y-115667419D02*
X183171419Y-115572181D01*
X183171419Y-115572181D02*
X183123800Y-115476943D01*
X183123800Y-115476943D02*
X183076180Y-115429324D01*
X183076180Y-115429324D02*
X182980942Y-115381705D01*
X182980942Y-115381705D02*
X182790466Y-115334086D01*
X182790466Y-115334086D02*
X182552371Y-115334086D01*
X182552371Y-115334086D02*
X182361895Y-115381705D01*
X182361895Y-115381705D02*
X182266657Y-115429324D01*
X182266657Y-115429324D02*
X182219038Y-115476943D01*
X182219038Y-115476943D02*
X182171419Y-115572181D01*
X168163441Y-92959176D02*
X168163441Y-93768699D01*
X168163441Y-93768699D02*
X168115822Y-93863937D01*
X168115822Y-93863937D02*
X168068203Y-93911557D01*
X168068203Y-93911557D02*
X167972965Y-93959176D01*
X167972965Y-93959176D02*
X167782489Y-93959176D01*
X167782489Y-93959176D02*
X167687251Y-93911557D01*
X167687251Y-93911557D02*
X167639632Y-93863937D01*
X167639632Y-93863937D02*
X167592013Y-93768699D01*
X167592013Y-93768699D02*
X167592013Y-92959176D01*
X166592013Y-93959176D02*
X167163441Y-93959176D01*
X166877727Y-93959176D02*
X166877727Y-92959176D01*
X166877727Y-92959176D02*
X166972965Y-93102033D01*
X166972965Y-93102033D02*
X167068203Y-93197271D01*
X167068203Y-93197271D02*
X167163441Y-93244890D01*
X166115822Y-93959176D02*
X165925346Y-93959176D01*
X165925346Y-93959176D02*
X165830108Y-93911557D01*
X165830108Y-93911557D02*
X165782489Y-93863937D01*
X165782489Y-93863937D02*
X165687251Y-93721080D01*
X165687251Y-93721080D02*
X165639632Y-93530604D01*
X165639632Y-93530604D02*
X165639632Y-93149652D01*
X165639632Y-93149652D02*
X165687251Y-93054414D01*
X165687251Y-93054414D02*
X165734870Y-93006795D01*
X165734870Y-93006795D02*
X165830108Y-92959176D01*
X165830108Y-92959176D02*
X166020584Y-92959176D01*
X166020584Y-92959176D02*
X166115822Y-93006795D01*
X166115822Y-93006795D02*
X166163441Y-93054414D01*
X166163441Y-93054414D02*
X166211060Y-93149652D01*
X166211060Y-93149652D02*
X166211060Y-93387747D01*
X166211060Y-93387747D02*
X166163441Y-93482985D01*
X166163441Y-93482985D02*
X166115822Y-93530604D01*
X166115822Y-93530604D02*
X166020584Y-93578223D01*
X166020584Y-93578223D02*
X165830108Y-93578223D01*
X165830108Y-93578223D02*
X165734870Y-93530604D01*
X165734870Y-93530604D02*
X165687251Y-93482985D01*
X165687251Y-93482985D02*
X165639632Y-93387747D01*
X182363019Y-80660505D02*
X183172542Y-80660505D01*
X183172542Y-80660505D02*
X183267780Y-80708124D01*
X183267780Y-80708124D02*
X183315400Y-80755743D01*
X183315400Y-80755743D02*
X183363019Y-80850981D01*
X183363019Y-80850981D02*
X183363019Y-81041457D01*
X183363019Y-81041457D02*
X183315400Y-81136695D01*
X183315400Y-81136695D02*
X183267780Y-81184314D01*
X183267780Y-81184314D02*
X183172542Y-81231933D01*
X183172542Y-81231933D02*
X182363019Y-81231933D01*
X183363019Y-82231933D02*
X183363019Y-81660505D01*
X183363019Y-81946219D02*
X182363019Y-81946219D01*
X182363019Y-81946219D02*
X182505876Y-81850981D01*
X182505876Y-81850981D02*
X182601114Y-81755743D01*
X182601114Y-81755743D02*
X182648733Y-81660505D01*
X182791590Y-82803362D02*
X182743971Y-82708124D01*
X182743971Y-82708124D02*
X182696352Y-82660505D01*
X182696352Y-82660505D02*
X182601114Y-82612886D01*
X182601114Y-82612886D02*
X182553495Y-82612886D01*
X182553495Y-82612886D02*
X182458257Y-82660505D01*
X182458257Y-82660505D02*
X182410638Y-82708124D01*
X182410638Y-82708124D02*
X182363019Y-82803362D01*
X182363019Y-82803362D02*
X182363019Y-82993838D01*
X182363019Y-82993838D02*
X182410638Y-83089076D01*
X182410638Y-83089076D02*
X182458257Y-83136695D01*
X182458257Y-83136695D02*
X182553495Y-83184314D01*
X182553495Y-83184314D02*
X182601114Y-83184314D01*
X182601114Y-83184314D02*
X182696352Y-83136695D01*
X182696352Y-83136695D02*
X182743971Y-83089076D01*
X182743971Y-83089076D02*
X182791590Y-82993838D01*
X182791590Y-82993838D02*
X182791590Y-82803362D01*
X182791590Y-82803362D02*
X182839209Y-82708124D01*
X182839209Y-82708124D02*
X182886828Y-82660505D01*
X182886828Y-82660505D02*
X182982066Y-82612886D01*
X182982066Y-82612886D02*
X183172542Y-82612886D01*
X183172542Y-82612886D02*
X183267780Y-82660505D01*
X183267780Y-82660505D02*
X183315400Y-82708124D01*
X183315400Y-82708124D02*
X183363019Y-82803362D01*
X183363019Y-82803362D02*
X183363019Y-82993838D01*
X183363019Y-82993838D02*
X183315400Y-83089076D01*
X183315400Y-83089076D02*
X183267780Y-83136695D01*
X183267780Y-83136695D02*
X183172542Y-83184314D01*
X183172542Y-83184314D02*
X182982066Y-83184314D01*
X182982066Y-83184314D02*
X182886828Y-83136695D01*
X182886828Y-83136695D02*
X182839209Y-83089076D01*
X182839209Y-83089076D02*
X182791590Y-82993838D01*
X158803219Y-110054905D02*
X159612742Y-110054905D01*
X159612742Y-110054905D02*
X159707980Y-110102524D01*
X159707980Y-110102524D02*
X159755600Y-110150143D01*
X159755600Y-110150143D02*
X159803219Y-110245381D01*
X159803219Y-110245381D02*
X159803219Y-110435857D01*
X159803219Y-110435857D02*
X159755600Y-110531095D01*
X159755600Y-110531095D02*
X159707980Y-110578714D01*
X159707980Y-110578714D02*
X159612742Y-110626333D01*
X159612742Y-110626333D02*
X158803219Y-110626333D01*
X159803219Y-111626333D02*
X159803219Y-111054905D01*
X159803219Y-111340619D02*
X158803219Y-111340619D01*
X158803219Y-111340619D02*
X158946076Y-111245381D01*
X158946076Y-111245381D02*
X159041314Y-111150143D01*
X159041314Y-111150143D02*
X159088933Y-111054905D01*
X159803219Y-112578714D02*
X159803219Y-112007286D01*
X159803219Y-112293000D02*
X158803219Y-112293000D01*
X158803219Y-112293000D02*
X158946076Y-112197762D01*
X158946076Y-112197762D02*
X159041314Y-112102524D01*
X159041314Y-112102524D02*
X159088933Y-112007286D01*
X106846219Y-117139505D02*
X107655742Y-117139505D01*
X107655742Y-117139505D02*
X107750980Y-117187124D01*
X107750980Y-117187124D02*
X107798600Y-117234743D01*
X107798600Y-117234743D02*
X107846219Y-117329981D01*
X107846219Y-117329981D02*
X107846219Y-117520457D01*
X107846219Y-117520457D02*
X107798600Y-117615695D01*
X107798600Y-117615695D02*
X107750980Y-117663314D01*
X107750980Y-117663314D02*
X107655742Y-117710933D01*
X107655742Y-117710933D02*
X106846219Y-117710933D01*
X107846219Y-118710933D02*
X107846219Y-118139505D01*
X107846219Y-118425219D02*
X106846219Y-118425219D01*
X106846219Y-118425219D02*
X106989076Y-118329981D01*
X106989076Y-118329981D02*
X107084314Y-118234743D01*
X107084314Y-118234743D02*
X107131933Y-118139505D01*
X106846219Y-119044267D02*
X106846219Y-119663314D01*
X106846219Y-119663314D02*
X107227171Y-119329981D01*
X107227171Y-119329981D02*
X107227171Y-119472838D01*
X107227171Y-119472838D02*
X107274790Y-119568076D01*
X107274790Y-119568076D02*
X107322409Y-119615695D01*
X107322409Y-119615695D02*
X107417647Y-119663314D01*
X107417647Y-119663314D02*
X107655742Y-119663314D01*
X107655742Y-119663314D02*
X107750980Y-119615695D01*
X107750980Y-119615695D02*
X107798600Y-119568076D01*
X107798600Y-119568076D02*
X107846219Y-119472838D01*
X107846219Y-119472838D02*
X107846219Y-119187124D01*
X107846219Y-119187124D02*
X107798600Y-119091886D01*
X107798600Y-119091886D02*
X107750980Y-119044267D01*
X182833369Y-106981037D02*
X182880989Y-106933418D01*
X182880989Y-106933418D02*
X182928608Y-106790561D01*
X182928608Y-106790561D02*
X182928608Y-106695323D01*
X182928608Y-106695323D02*
X182880989Y-106552466D01*
X182880989Y-106552466D02*
X182785750Y-106457228D01*
X182785750Y-106457228D02*
X182690512Y-106409609D01*
X182690512Y-106409609D02*
X182500036Y-106361990D01*
X182500036Y-106361990D02*
X182357179Y-106361990D01*
X182357179Y-106361990D02*
X182166703Y-106409609D01*
X182166703Y-106409609D02*
X182071465Y-106457228D01*
X182071465Y-106457228D02*
X181976227Y-106552466D01*
X181976227Y-106552466D02*
X181928608Y-106695323D01*
X181928608Y-106695323D02*
X181928608Y-106790561D01*
X181928608Y-106790561D02*
X181976227Y-106933418D01*
X181976227Y-106933418D02*
X182023846Y-106981037D01*
X182928608Y-107933418D02*
X182928608Y-107361990D01*
X182928608Y-107647704D02*
X181928608Y-107647704D01*
X181928608Y-107647704D02*
X182071465Y-107552466D01*
X182071465Y-107552466D02*
X182166703Y-107457228D01*
X182166703Y-107457228D02*
X182214322Y-107361990D01*
X182261941Y-108790561D02*
X182928608Y-108790561D01*
X181880989Y-108552466D02*
X182595274Y-108314371D01*
X182595274Y-108314371D02*
X182595274Y-108933418D01*
X157233780Y-97197595D02*
X157281400Y-97149976D01*
X157281400Y-97149976D02*
X157329019Y-97007119D01*
X157329019Y-97007119D02*
X157329019Y-96911881D01*
X157329019Y-96911881D02*
X157281400Y-96769024D01*
X157281400Y-96769024D02*
X157186161Y-96673786D01*
X157186161Y-96673786D02*
X157090923Y-96626167D01*
X157090923Y-96626167D02*
X156900447Y-96578548D01*
X156900447Y-96578548D02*
X156757590Y-96578548D01*
X156757590Y-96578548D02*
X156567114Y-96626167D01*
X156567114Y-96626167D02*
X156471876Y-96673786D01*
X156471876Y-96673786D02*
X156376638Y-96769024D01*
X156376638Y-96769024D02*
X156329019Y-96911881D01*
X156329019Y-96911881D02*
X156329019Y-97007119D01*
X156329019Y-97007119D02*
X156376638Y-97149976D01*
X156376638Y-97149976D02*
X156424257Y-97197595D01*
X156424257Y-97578548D02*
X156376638Y-97626167D01*
X156376638Y-97626167D02*
X156329019Y-97721405D01*
X156329019Y-97721405D02*
X156329019Y-97959500D01*
X156329019Y-97959500D02*
X156376638Y-98054738D01*
X156376638Y-98054738D02*
X156424257Y-98102357D01*
X156424257Y-98102357D02*
X156519495Y-98149976D01*
X156519495Y-98149976D02*
X156614733Y-98149976D01*
X156614733Y-98149976D02*
X156757590Y-98102357D01*
X156757590Y-98102357D02*
X157329019Y-97530929D01*
X157329019Y-97530929D02*
X157329019Y-98149976D01*
X156329019Y-98769024D02*
X156329019Y-98864262D01*
X156329019Y-98864262D02*
X156376638Y-98959500D01*
X156376638Y-98959500D02*
X156424257Y-99007119D01*
X156424257Y-99007119D02*
X156519495Y-99054738D01*
X156519495Y-99054738D02*
X156709971Y-99102357D01*
X156709971Y-99102357D02*
X156948066Y-99102357D01*
X156948066Y-99102357D02*
X157138542Y-99054738D01*
X157138542Y-99054738D02*
X157233780Y-99007119D01*
X157233780Y-99007119D02*
X157281400Y-98959500D01*
X157281400Y-98959500D02*
X157329019Y-98864262D01*
X157329019Y-98864262D02*
X157329019Y-98769024D01*
X157329019Y-98769024D02*
X157281400Y-98673786D01*
X157281400Y-98673786D02*
X157233780Y-98626167D01*
X157233780Y-98626167D02*
X157138542Y-98578548D01*
X157138542Y-98578548D02*
X156948066Y-98530929D01*
X156948066Y-98530929D02*
X156709971Y-98530929D01*
X156709971Y-98530929D02*
X156519495Y-98578548D01*
X156519495Y-98578548D02*
X156424257Y-98626167D01*
X156424257Y-98626167D02*
X156376638Y-98673786D01*
X156376638Y-98673786D02*
X156329019Y-98769024D01*
X155336094Y-121304819D02*
X155336094Y-122114342D01*
X155336094Y-122114342D02*
X155288475Y-122209580D01*
X155288475Y-122209580D02*
X155240856Y-122257200D01*
X155240856Y-122257200D02*
X155145618Y-122304819D01*
X155145618Y-122304819D02*
X154955142Y-122304819D01*
X154955142Y-122304819D02*
X154859904Y-122257200D01*
X154859904Y-122257200D02*
X154812285Y-122209580D01*
X154812285Y-122209580D02*
X154764666Y-122114342D01*
X154764666Y-122114342D02*
X154764666Y-121304819D01*
X153764666Y-122304819D02*
X154336094Y-122304819D01*
X154050380Y-122304819D02*
X154050380Y-121304819D01*
X154050380Y-121304819D02*
X154145618Y-121447676D01*
X154145618Y-121447676D02*
X154240856Y-121542914D01*
X154240856Y-121542914D02*
X154336094Y-121590533D01*
X153383713Y-121400057D02*
X153336094Y-121352438D01*
X153336094Y-121352438D02*
X153240856Y-121304819D01*
X153240856Y-121304819D02*
X153002761Y-121304819D01*
X153002761Y-121304819D02*
X152907523Y-121352438D01*
X152907523Y-121352438D02*
X152859904Y-121400057D01*
X152859904Y-121400057D02*
X152812285Y-121495295D01*
X152812285Y-121495295D02*
X152812285Y-121590533D01*
X152812285Y-121590533D02*
X152859904Y-121733390D01*
X152859904Y-121733390D02*
X153431332Y-122304819D01*
X153431332Y-122304819D02*
X152812285Y-122304819D01*
X157019019Y-102504705D02*
X157828542Y-102504705D01*
X157828542Y-102504705D02*
X157923780Y-102552324D01*
X157923780Y-102552324D02*
X157971400Y-102599943D01*
X157971400Y-102599943D02*
X158019019Y-102695181D01*
X158019019Y-102695181D02*
X158019019Y-102885657D01*
X158019019Y-102885657D02*
X157971400Y-102980895D01*
X157971400Y-102980895D02*
X157923780Y-103028514D01*
X157923780Y-103028514D02*
X157828542Y-103076133D01*
X157828542Y-103076133D02*
X157019019Y-103076133D01*
X158019019Y-104076133D02*
X158019019Y-103504705D01*
X158019019Y-103790419D02*
X157019019Y-103790419D01*
X157019019Y-103790419D02*
X157161876Y-103695181D01*
X157161876Y-103695181D02*
X157257114Y-103599943D01*
X157257114Y-103599943D02*
X157304733Y-103504705D01*
X157019019Y-104980895D02*
X157019019Y-104504705D01*
X157019019Y-104504705D02*
X157495209Y-104457086D01*
X157495209Y-104457086D02*
X157447590Y-104504705D01*
X157447590Y-104504705D02*
X157399971Y-104599943D01*
X157399971Y-104599943D02*
X157399971Y-104838038D01*
X157399971Y-104838038D02*
X157447590Y-104933276D01*
X157447590Y-104933276D02*
X157495209Y-104980895D01*
X157495209Y-104980895D02*
X157590447Y-105028514D01*
X157590447Y-105028514D02*
X157828542Y-105028514D01*
X157828542Y-105028514D02*
X157923780Y-104980895D01*
X157923780Y-104980895D02*
X157971400Y-104933276D01*
X157971400Y-104933276D02*
X158019019Y-104838038D01*
X158019019Y-104838038D02*
X158019019Y-104599943D01*
X158019019Y-104599943D02*
X157971400Y-104504705D01*
X157971400Y-104504705D02*
X157923780Y-104457086D01*
X107726444Y-122768626D02*
X107774064Y-122721007D01*
X107774064Y-122721007D02*
X107821683Y-122578150D01*
X107821683Y-122578150D02*
X107821683Y-122482912D01*
X107821683Y-122482912D02*
X107774064Y-122340055D01*
X107774064Y-122340055D02*
X107678825Y-122244817D01*
X107678825Y-122244817D02*
X107583587Y-122197198D01*
X107583587Y-122197198D02*
X107393111Y-122149579D01*
X107393111Y-122149579D02*
X107250254Y-122149579D01*
X107250254Y-122149579D02*
X107059778Y-122197198D01*
X107059778Y-122197198D02*
X106964540Y-122244817D01*
X106964540Y-122244817D02*
X106869302Y-122340055D01*
X106869302Y-122340055D02*
X106821683Y-122482912D01*
X106821683Y-122482912D02*
X106821683Y-122578150D01*
X106821683Y-122578150D02*
X106869302Y-122721007D01*
X106869302Y-122721007D02*
X106916921Y-122768626D01*
X107821683Y-123721007D02*
X107821683Y-123149579D01*
X107821683Y-123435293D02*
X106821683Y-123435293D01*
X106821683Y-123435293D02*
X106964540Y-123340055D01*
X106964540Y-123340055D02*
X107059778Y-123244817D01*
X107059778Y-123244817D02*
X107107397Y-123149579D01*
X106821683Y-124054341D02*
X106821683Y-124673388D01*
X106821683Y-124673388D02*
X107202635Y-124340055D01*
X107202635Y-124340055D02*
X107202635Y-124482912D01*
X107202635Y-124482912D02*
X107250254Y-124578150D01*
X107250254Y-124578150D02*
X107297873Y-124625769D01*
X107297873Y-124625769D02*
X107393111Y-124673388D01*
X107393111Y-124673388D02*
X107631206Y-124673388D01*
X107631206Y-124673388D02*
X107726444Y-124625769D01*
X107726444Y-124625769D02*
X107774064Y-124578150D01*
X107774064Y-124578150D02*
X107821683Y-124482912D01*
X107821683Y-124482912D02*
X107821683Y-124197198D01*
X107821683Y-124197198D02*
X107774064Y-124101960D01*
X107774064Y-124101960D02*
X107726444Y-124054341D01*
X159778591Y-101185679D02*
X159826211Y-101138060D01*
X159826211Y-101138060D02*
X159873830Y-100995203D01*
X159873830Y-100995203D02*
X159873830Y-100899965D01*
X159873830Y-100899965D02*
X159826211Y-100757108D01*
X159826211Y-100757108D02*
X159730972Y-100661870D01*
X159730972Y-100661870D02*
X159635734Y-100614251D01*
X159635734Y-100614251D02*
X159445258Y-100566632D01*
X159445258Y-100566632D02*
X159302401Y-100566632D01*
X159302401Y-100566632D02*
X159111925Y-100614251D01*
X159111925Y-100614251D02*
X159016687Y-100661870D01*
X159016687Y-100661870D02*
X158921449Y-100757108D01*
X158921449Y-100757108D02*
X158873830Y-100899965D01*
X158873830Y-100899965D02*
X158873830Y-100995203D01*
X158873830Y-100995203D02*
X158921449Y-101138060D01*
X158921449Y-101138060D02*
X158969068Y-101185679D01*
X159873830Y-102138060D02*
X159873830Y-101566632D01*
X159873830Y-101852346D02*
X158873830Y-101852346D01*
X158873830Y-101852346D02*
X159016687Y-101757108D01*
X159016687Y-101757108D02*
X159111925Y-101661870D01*
X159111925Y-101661870D02*
X159159544Y-101566632D01*
X158873830Y-103042822D02*
X158873830Y-102566632D01*
X158873830Y-102566632D02*
X159350020Y-102519013D01*
X159350020Y-102519013D02*
X159302401Y-102566632D01*
X159302401Y-102566632D02*
X159254782Y-102661870D01*
X159254782Y-102661870D02*
X159254782Y-102899965D01*
X159254782Y-102899965D02*
X159302401Y-102995203D01*
X159302401Y-102995203D02*
X159350020Y-103042822D01*
X159350020Y-103042822D02*
X159445258Y-103090441D01*
X159445258Y-103090441D02*
X159683353Y-103090441D01*
X159683353Y-103090441D02*
X159778591Y-103042822D01*
X159778591Y-103042822D02*
X159826211Y-102995203D01*
X159826211Y-102995203D02*
X159873830Y-102899965D01*
X159873830Y-102899965D02*
X159873830Y-102661870D01*
X159873830Y-102661870D02*
X159826211Y-102566632D01*
X159826211Y-102566632D02*
X159778591Y-102519013D01*
X182206365Y-94529181D02*
X183015888Y-94529181D01*
X183015888Y-94529181D02*
X183111126Y-94576800D01*
X183111126Y-94576800D02*
X183158746Y-94624419D01*
X183158746Y-94624419D02*
X183206365Y-94719657D01*
X183206365Y-94719657D02*
X183206365Y-94910133D01*
X183206365Y-94910133D02*
X183158746Y-95005371D01*
X183158746Y-95005371D02*
X183111126Y-95052990D01*
X183111126Y-95052990D02*
X183015888Y-95100609D01*
X183015888Y-95100609D02*
X182206365Y-95100609D01*
X183206365Y-96100609D02*
X183206365Y-95529181D01*
X183206365Y-95814895D02*
X182206365Y-95814895D01*
X182206365Y-95814895D02*
X182349222Y-95719657D01*
X182349222Y-95719657D02*
X182444460Y-95624419D01*
X182444460Y-95624419D02*
X182492079Y-95529181D01*
X182539698Y-96957752D02*
X183206365Y-96957752D01*
X182158746Y-96719657D02*
X182873031Y-96481562D01*
X182873031Y-96481562D02*
X182873031Y-97100609D01*
X157887494Y-90421819D02*
X157887494Y-91231342D01*
X157887494Y-91231342D02*
X157839875Y-91326580D01*
X157839875Y-91326580D02*
X157792256Y-91374200D01*
X157792256Y-91374200D02*
X157697018Y-91421819D01*
X157697018Y-91421819D02*
X157506542Y-91421819D01*
X157506542Y-91421819D02*
X157411304Y-91374200D01*
X157411304Y-91374200D02*
X157363685Y-91326580D01*
X157363685Y-91326580D02*
X157316066Y-91231342D01*
X157316066Y-91231342D02*
X157316066Y-90421819D01*
X156887494Y-90517057D02*
X156839875Y-90469438D01*
X156839875Y-90469438D02*
X156744637Y-90421819D01*
X156744637Y-90421819D02*
X156506542Y-90421819D01*
X156506542Y-90421819D02*
X156411304Y-90469438D01*
X156411304Y-90469438D02*
X156363685Y-90517057D01*
X156363685Y-90517057D02*
X156316066Y-90612295D01*
X156316066Y-90612295D02*
X156316066Y-90707533D01*
X156316066Y-90707533D02*
X156363685Y-90850390D01*
X156363685Y-90850390D02*
X156935113Y-91421819D01*
X156935113Y-91421819D02*
X156316066Y-91421819D01*
X155697018Y-90421819D02*
X155601780Y-90421819D01*
X155601780Y-90421819D02*
X155506542Y-90469438D01*
X155506542Y-90469438D02*
X155458923Y-90517057D01*
X155458923Y-90517057D02*
X155411304Y-90612295D01*
X155411304Y-90612295D02*
X155363685Y-90802771D01*
X155363685Y-90802771D02*
X155363685Y-91040866D01*
X155363685Y-91040866D02*
X155411304Y-91231342D01*
X155411304Y-91231342D02*
X155458923Y-91326580D01*
X155458923Y-91326580D02*
X155506542Y-91374200D01*
X155506542Y-91374200D02*
X155601780Y-91421819D01*
X155601780Y-91421819D02*
X155697018Y-91421819D01*
X155697018Y-91421819D02*
X155792256Y-91374200D01*
X155792256Y-91374200D02*
X155839875Y-91326580D01*
X155839875Y-91326580D02*
X155887494Y-91231342D01*
X155887494Y-91231342D02*
X155935113Y-91040866D01*
X155935113Y-91040866D02*
X155935113Y-90802771D01*
X155935113Y-90802771D02*
X155887494Y-90612295D01*
X155887494Y-90612295D02*
X155839875Y-90517057D01*
X155839875Y-90517057D02*
X155792256Y-90469438D01*
X155792256Y-90469438D02*
X155697018Y-90421819D01*
X134258094Y-121390819D02*
X134258094Y-122200342D01*
X134258094Y-122200342D02*
X134210475Y-122295580D01*
X134210475Y-122295580D02*
X134162856Y-122343200D01*
X134162856Y-122343200D02*
X134067618Y-122390819D01*
X134067618Y-122390819D02*
X133877142Y-122390819D01*
X133877142Y-122390819D02*
X133781904Y-122343200D01*
X133781904Y-122343200D02*
X133734285Y-122295580D01*
X133734285Y-122295580D02*
X133686666Y-122200342D01*
X133686666Y-122200342D02*
X133686666Y-121390819D01*
X132686666Y-122390819D02*
X133258094Y-122390819D01*
X132972380Y-122390819D02*
X132972380Y-121390819D01*
X132972380Y-121390819D02*
X133067618Y-121533676D01*
X133067618Y-121533676D02*
X133162856Y-121628914D01*
X133162856Y-121628914D02*
X133258094Y-121676533D01*
X131829523Y-121390819D02*
X132019999Y-121390819D01*
X132019999Y-121390819D02*
X132115237Y-121438438D01*
X132115237Y-121438438D02*
X132162856Y-121486057D01*
X132162856Y-121486057D02*
X132258094Y-121628914D01*
X132258094Y-121628914D02*
X132305713Y-121819390D01*
X132305713Y-121819390D02*
X132305713Y-122200342D01*
X132305713Y-122200342D02*
X132258094Y-122295580D01*
X132258094Y-122295580D02*
X132210475Y-122343200D01*
X132210475Y-122343200D02*
X132115237Y-122390819D01*
X132115237Y-122390819D02*
X131924761Y-122390819D01*
X131924761Y-122390819D02*
X131829523Y-122343200D01*
X131829523Y-122343200D02*
X131781904Y-122295580D01*
X131781904Y-122295580D02*
X131734285Y-122200342D01*
X131734285Y-122200342D02*
X131734285Y-121962247D01*
X131734285Y-121962247D02*
X131781904Y-121867009D01*
X131781904Y-121867009D02*
X131829523Y-121819390D01*
X131829523Y-121819390D02*
X131924761Y-121771771D01*
X131924761Y-121771771D02*
X132115237Y-121771771D01*
X132115237Y-121771771D02*
X132210475Y-121819390D01*
X132210475Y-121819390D02*
X132258094Y-121867009D01*
X132258094Y-121867009D02*
X132305713Y-121962247D01*
X159930727Y-97175247D02*
X159978347Y-97127628D01*
X159978347Y-97127628D02*
X160025966Y-96984771D01*
X160025966Y-96984771D02*
X160025966Y-96889533D01*
X160025966Y-96889533D02*
X159978347Y-96746676D01*
X159978347Y-96746676D02*
X159883108Y-96651438D01*
X159883108Y-96651438D02*
X159787870Y-96603819D01*
X159787870Y-96603819D02*
X159597394Y-96556200D01*
X159597394Y-96556200D02*
X159454537Y-96556200D01*
X159454537Y-96556200D02*
X159264061Y-96603819D01*
X159264061Y-96603819D02*
X159168823Y-96651438D01*
X159168823Y-96651438D02*
X159073585Y-96746676D01*
X159073585Y-96746676D02*
X159025966Y-96889533D01*
X159025966Y-96889533D02*
X159025966Y-96984771D01*
X159025966Y-96984771D02*
X159073585Y-97127628D01*
X159073585Y-97127628D02*
X159121204Y-97175247D01*
X160025966Y-98127628D02*
X160025966Y-97556200D01*
X160025966Y-97841914D02*
X159025966Y-97841914D01*
X159025966Y-97841914D02*
X159168823Y-97746676D01*
X159168823Y-97746676D02*
X159264061Y-97651438D01*
X159264061Y-97651438D02*
X159311680Y-97556200D01*
X160025966Y-98603819D02*
X160025966Y-98794295D01*
X160025966Y-98794295D02*
X159978347Y-98889533D01*
X159978347Y-98889533D02*
X159930727Y-98937152D01*
X159930727Y-98937152D02*
X159787870Y-99032390D01*
X159787870Y-99032390D02*
X159597394Y-99080009D01*
X159597394Y-99080009D02*
X159216442Y-99080009D01*
X159216442Y-99080009D02*
X159121204Y-99032390D01*
X159121204Y-99032390D02*
X159073585Y-98984771D01*
X159073585Y-98984771D02*
X159025966Y-98889533D01*
X159025966Y-98889533D02*
X159025966Y-98699057D01*
X159025966Y-98699057D02*
X159073585Y-98603819D01*
X159073585Y-98603819D02*
X159121204Y-98556200D01*
X159121204Y-98556200D02*
X159216442Y-98508581D01*
X159216442Y-98508581D02*
X159454537Y-98508581D01*
X159454537Y-98508581D02*
X159549775Y-98556200D01*
X159549775Y-98556200D02*
X159597394Y-98603819D01*
X159597394Y-98603819D02*
X159645013Y-98699057D01*
X159645013Y-98699057D02*
X159645013Y-98889533D01*
X159645013Y-98889533D02*
X159597394Y-98984771D01*
X159597394Y-98984771D02*
X159549775Y-99032390D01*
X159549775Y-99032390D02*
X159454537Y-99080009D01*
X107723875Y-106980732D02*
X107771495Y-106933113D01*
X107771495Y-106933113D02*
X107819114Y-106790256D01*
X107819114Y-106790256D02*
X107819114Y-106695018D01*
X107819114Y-106695018D02*
X107771495Y-106552161D01*
X107771495Y-106552161D02*
X107676256Y-106456923D01*
X107676256Y-106456923D02*
X107581018Y-106409304D01*
X107581018Y-106409304D02*
X107390542Y-106361685D01*
X107390542Y-106361685D02*
X107247685Y-106361685D01*
X107247685Y-106361685D02*
X107057209Y-106409304D01*
X107057209Y-106409304D02*
X106961971Y-106456923D01*
X106961971Y-106456923D02*
X106866733Y-106552161D01*
X106866733Y-106552161D02*
X106819114Y-106695018D01*
X106819114Y-106695018D02*
X106819114Y-106790256D01*
X106819114Y-106790256D02*
X106866733Y-106933113D01*
X106866733Y-106933113D02*
X106914352Y-106980732D01*
X107819114Y-107933113D02*
X107819114Y-107361685D01*
X107819114Y-107647399D02*
X106819114Y-107647399D01*
X106819114Y-107647399D02*
X106961971Y-107552161D01*
X106961971Y-107552161D02*
X107057209Y-107456923D01*
X107057209Y-107456923D02*
X107104828Y-107361685D01*
X106819114Y-108266447D02*
X106819114Y-108933113D01*
X106819114Y-108933113D02*
X107819114Y-108504542D01*
X106791819Y-101727905D02*
X107601342Y-101727905D01*
X107601342Y-101727905D02*
X107696580Y-101775524D01*
X107696580Y-101775524D02*
X107744200Y-101823143D01*
X107744200Y-101823143D02*
X107791819Y-101918381D01*
X107791819Y-101918381D02*
X107791819Y-102108857D01*
X107791819Y-102108857D02*
X107744200Y-102204095D01*
X107744200Y-102204095D02*
X107696580Y-102251714D01*
X107696580Y-102251714D02*
X107601342Y-102299333D01*
X107601342Y-102299333D02*
X106791819Y-102299333D01*
X107791819Y-103299333D02*
X107791819Y-102727905D01*
X107791819Y-103013619D02*
X106791819Y-103013619D01*
X106791819Y-103013619D02*
X106934676Y-102918381D01*
X106934676Y-102918381D02*
X107029914Y-102823143D01*
X107029914Y-102823143D02*
X107077533Y-102727905D01*
X106791819Y-103632667D02*
X106791819Y-104299333D01*
X106791819Y-104299333D02*
X107791819Y-103870762D01*
X183051327Y-86729427D02*
X183098947Y-86681808D01*
X183098947Y-86681808D02*
X183146566Y-86538951D01*
X183146566Y-86538951D02*
X183146566Y-86443713D01*
X183146566Y-86443713D02*
X183098947Y-86300856D01*
X183098947Y-86300856D02*
X183003708Y-86205618D01*
X183003708Y-86205618D02*
X182908470Y-86157999D01*
X182908470Y-86157999D02*
X182717994Y-86110380D01*
X182717994Y-86110380D02*
X182575137Y-86110380D01*
X182575137Y-86110380D02*
X182384661Y-86157999D01*
X182384661Y-86157999D02*
X182289423Y-86205618D01*
X182289423Y-86205618D02*
X182194185Y-86300856D01*
X182194185Y-86300856D02*
X182146566Y-86443713D01*
X182146566Y-86443713D02*
X182146566Y-86538951D01*
X182146566Y-86538951D02*
X182194185Y-86681808D01*
X182194185Y-86681808D02*
X182241804Y-86729427D01*
X183146566Y-87681808D02*
X183146566Y-87110380D01*
X183146566Y-87396094D02*
X182146566Y-87396094D01*
X182146566Y-87396094D02*
X182289423Y-87300856D01*
X182289423Y-87300856D02*
X182384661Y-87205618D01*
X182384661Y-87205618D02*
X182432280Y-87110380D01*
X182575137Y-88253237D02*
X182527518Y-88157999D01*
X182527518Y-88157999D02*
X182479899Y-88110380D01*
X182479899Y-88110380D02*
X182384661Y-88062761D01*
X182384661Y-88062761D02*
X182337042Y-88062761D01*
X182337042Y-88062761D02*
X182241804Y-88110380D01*
X182241804Y-88110380D02*
X182194185Y-88157999D01*
X182194185Y-88157999D02*
X182146566Y-88253237D01*
X182146566Y-88253237D02*
X182146566Y-88443713D01*
X182146566Y-88443713D02*
X182194185Y-88538951D01*
X182194185Y-88538951D02*
X182241804Y-88586570D01*
X182241804Y-88586570D02*
X182337042Y-88634189D01*
X182337042Y-88634189D02*
X182384661Y-88634189D01*
X182384661Y-88634189D02*
X182479899Y-88586570D01*
X182479899Y-88586570D02*
X182527518Y-88538951D01*
X182527518Y-88538951D02*
X182575137Y-88443713D01*
X182575137Y-88443713D02*
X182575137Y-88253237D01*
X182575137Y-88253237D02*
X182622756Y-88157999D01*
X182622756Y-88157999D02*
X182670375Y-88110380D01*
X182670375Y-88110380D02*
X182765613Y-88062761D01*
X182765613Y-88062761D02*
X182956089Y-88062761D01*
X182956089Y-88062761D02*
X183051327Y-88110380D01*
X183051327Y-88110380D02*
X183098947Y-88157999D01*
X183098947Y-88157999D02*
X183146566Y-88253237D01*
X183146566Y-88253237D02*
X183146566Y-88443713D01*
X183146566Y-88443713D02*
X183098947Y-88538951D01*
X183098947Y-88538951D02*
X183051327Y-88586570D01*
X183051327Y-88586570D02*
X182956089Y-88634189D01*
X182956089Y-88634189D02*
X182765613Y-88634189D01*
X182765613Y-88634189D02*
X182670375Y-88586570D01*
X182670375Y-88586570D02*
X182622756Y-88538951D01*
X182622756Y-88538951D02*
X182575137Y-88443713D01*
X137917446Y-122288622D02*
X137965065Y-122336242D01*
X137965065Y-122336242D02*
X138107922Y-122383861D01*
X138107922Y-122383861D02*
X138203160Y-122383861D01*
X138203160Y-122383861D02*
X138346017Y-122336242D01*
X138346017Y-122336242D02*
X138441255Y-122241003D01*
X138441255Y-122241003D02*
X138488874Y-122145765D01*
X138488874Y-122145765D02*
X138536493Y-121955289D01*
X138536493Y-121955289D02*
X138536493Y-121812432D01*
X138536493Y-121812432D02*
X138488874Y-121621956D01*
X138488874Y-121621956D02*
X138441255Y-121526718D01*
X138441255Y-121526718D02*
X138346017Y-121431480D01*
X138346017Y-121431480D02*
X138203160Y-121383861D01*
X138203160Y-121383861D02*
X138107922Y-121383861D01*
X138107922Y-121383861D02*
X137965065Y-121431480D01*
X137965065Y-121431480D02*
X137917446Y-121479099D01*
X136965065Y-122383861D02*
X137536493Y-122383861D01*
X137250779Y-122383861D02*
X137250779Y-121383861D01*
X137250779Y-121383861D02*
X137346017Y-121526718D01*
X137346017Y-121526718D02*
X137441255Y-121621956D01*
X137441255Y-121621956D02*
X137536493Y-121669575D01*
X136107922Y-121383861D02*
X136298398Y-121383861D01*
X136298398Y-121383861D02*
X136393636Y-121431480D01*
X136393636Y-121431480D02*
X136441255Y-121479099D01*
X136441255Y-121479099D02*
X136536493Y-121621956D01*
X136536493Y-121621956D02*
X136584112Y-121812432D01*
X136584112Y-121812432D02*
X136584112Y-122193384D01*
X136584112Y-122193384D02*
X136536493Y-122288622D01*
X136536493Y-122288622D02*
X136488874Y-122336242D01*
X136488874Y-122336242D02*
X136393636Y-122383861D01*
X136393636Y-122383861D02*
X136203160Y-122383861D01*
X136203160Y-122383861D02*
X136107922Y-122336242D01*
X136107922Y-122336242D02*
X136060303Y-122288622D01*
X136060303Y-122288622D02*
X136012684Y-122193384D01*
X136012684Y-122193384D02*
X136012684Y-121955289D01*
X136012684Y-121955289D02*
X136060303Y-121860051D01*
X136060303Y-121860051D02*
X136107922Y-121812432D01*
X136107922Y-121812432D02*
X136203160Y-121764813D01*
X136203160Y-121764813D02*
X136393636Y-121764813D01*
X136393636Y-121764813D02*
X136488874Y-121812432D01*
X136488874Y-121812432D02*
X136536493Y-121860051D01*
X136536493Y-121860051D02*
X136584112Y-121955289D01*
D11*
%TO.C,C11*%
X158533831Y-121287473D02*
X158533831Y-120764969D01*
X160003831Y-121287473D02*
X160003831Y-120764969D01*
%TO.C,C10*%
X183399179Y-121287726D02*
X183399179Y-120765222D01*
X181929179Y-121287726D02*
X181929179Y-120765222D01*
%TO.C,C12*%
X151219252Y-121161948D02*
X150696748Y-121161948D01*
X151219252Y-122631948D02*
X150696748Y-122631948D01*
%TO.C,U10*%
X183887000Y-111727000D02*
X183887000Y-122927000D01*
X183887000Y-111727000D02*
X184087000Y-111727000D01*
X204687000Y-109727000D02*
X204687000Y-122927000D01*
X184194946Y-110776676D02*
X183864946Y-111016676D01*
X183864946Y-110536676D01*
X184194946Y-110776676D01*
G36*
X184194946Y-110776676D02*
G01*
X183864946Y-111016676D01*
X183864946Y-110536676D01*
X184194946Y-110776676D01*
G37*
%TO.C,U19*%
X160646000Y-81501000D02*
X160646000Y-92701000D01*
X160646000Y-81501000D02*
X160846000Y-81501000D01*
X181446000Y-79501000D02*
X181446000Y-92701000D01*
X160953946Y-80550676D02*
X160623946Y-80790676D01*
X160623946Y-80310676D01*
X160953946Y-80550676D01*
G36*
X160953946Y-80550676D02*
G01*
X160623946Y-80790676D01*
X160623946Y-80310676D01*
X160953946Y-80550676D01*
G37*
%TO.C,U18*%
X183887000Y-81501000D02*
X183887000Y-92701000D01*
X183887000Y-81501000D02*
X184087000Y-81501000D01*
X204687000Y-79501000D02*
X204687000Y-92701000D01*
X184194946Y-80550676D02*
X183864946Y-80790676D01*
X183864946Y-80310676D01*
X184194946Y-80550676D01*
G36*
X184194946Y-80550676D02*
G01*
X183864946Y-80790676D01*
X183864946Y-80310676D01*
X184194946Y-80550676D01*
G37*
%TO.C,U11*%
X160646000Y-111727000D02*
X160646000Y-122927000D01*
X160646000Y-111727000D02*
X160846000Y-111727000D01*
X181446000Y-109727000D02*
X181446000Y-122927000D01*
X160953946Y-110776676D02*
X160623946Y-111016676D01*
X160623946Y-110536676D01*
X160953946Y-110776676D01*
G36*
X160953946Y-110776676D02*
G01*
X160623946Y-111016676D01*
X160623946Y-110536676D01*
X160953946Y-110776676D01*
G37*
%TO.C,U13*%
X108322000Y-118585000D02*
X108322000Y-129785000D01*
X108322000Y-118585000D02*
X108522000Y-118585000D01*
X129122000Y-116585000D02*
X129122000Y-129785000D01*
X108629946Y-117634676D02*
X108299946Y-117874676D01*
X108299946Y-117394676D01*
X108629946Y-117634676D01*
G36*
X108629946Y-117634676D02*
G01*
X108299946Y-117874676D01*
X108299946Y-117394676D01*
X108629946Y-117634676D01*
G37*
%TO.C,C14*%
X182042789Y-111160243D02*
X182042789Y-111682747D01*
X183512789Y-111160243D02*
X183512789Y-111682747D01*
%TO.C,C20*%
X156350800Y-93946295D02*
X156350800Y-94468799D01*
X157820800Y-93946295D02*
X157820800Y-94468799D01*
%TO.C,U12*%
X143110000Y-99704000D02*
X156310000Y-99704000D01*
X145110000Y-120504000D02*
X145110000Y-120304000D01*
X145110000Y-120504000D02*
X156310000Y-120504000D01*
X144399676Y-120526054D02*
X143919676Y-120526054D01*
X144159676Y-120196054D01*
X144399676Y-120526054D01*
G36*
X144399676Y-120526054D02*
G01*
X143919676Y-120526054D01*
X144159676Y-120196054D01*
X144399676Y-120526054D01*
G37*
%TO.C,U15*%
X160646000Y-96487000D02*
X160646000Y-107687000D01*
X160646000Y-96487000D02*
X160846000Y-96487000D01*
X181446000Y-94487000D02*
X181446000Y-107687000D01*
X160953946Y-95536676D02*
X160623946Y-95776676D01*
X160623946Y-95296676D01*
X160953946Y-95536676D01*
G36*
X160953946Y-95536676D02*
G01*
X160623946Y-95776676D01*
X160623946Y-95296676D01*
X160953946Y-95536676D01*
G37*
%TO.C,C13*%
X106475864Y-127228736D02*
X106475864Y-126706232D01*
X107945864Y-127228736D02*
X107945864Y-126706232D01*
%TO.C,C15*%
X158678011Y-106193789D02*
X158678011Y-105671285D01*
X160148011Y-106193789D02*
X160148011Y-105671285D01*
%TO.C,U14*%
X183887000Y-96487000D02*
X183887000Y-107687000D01*
X183887000Y-96487000D02*
X184087000Y-96487000D01*
X204687000Y-94487000D02*
X204687000Y-107687000D01*
X184194946Y-95536676D02*
X183864946Y-95776676D01*
X183864946Y-95296676D01*
X184194946Y-95536676D01*
G36*
X184194946Y-95536676D02*
G01*
X183864946Y-95776676D01*
X183864946Y-95296676D01*
X184194946Y-95536676D01*
G37*
%TO.C,U20*%
X139437000Y-79100000D02*
X139437000Y-90300000D01*
X139437000Y-79100000D02*
X139637000Y-79100000D01*
X160237000Y-77100000D02*
X160237000Y-90300000D01*
X139744946Y-78149676D02*
X139414946Y-78389676D01*
X139414946Y-77909676D01*
X139744946Y-78149676D01*
G36*
X139744946Y-78149676D02*
G01*
X139414946Y-78389676D01*
X139414946Y-77909676D01*
X139744946Y-78149676D01*
G37*
%TO.C,U16*%
X129394000Y-99704000D02*
X142594000Y-99704000D01*
X131394000Y-120504000D02*
X131394000Y-120304000D01*
X131394000Y-120504000D02*
X142594000Y-120504000D01*
X130683676Y-120526054D02*
X130203676Y-120526054D01*
X130443676Y-120196054D01*
X130683676Y-120526054D01*
G36*
X130683676Y-120526054D02*
G01*
X130203676Y-120526054D01*
X130443676Y-120196054D01*
X130683676Y-120526054D01*
G37*
%TO.C,C19*%
X158819853Y-93998643D02*
X158819853Y-94521147D01*
X160289853Y-93998643D02*
X160289853Y-94521147D01*
%TO.C,C17*%
X106473295Y-111542442D02*
X106473295Y-111019938D01*
X107943295Y-111542442D02*
X107943295Y-111019938D01*
%TO.C,U17*%
X108322000Y-101821000D02*
X108322000Y-113021000D01*
X108322000Y-101821000D02*
X108522000Y-101821000D01*
X129122000Y-99821000D02*
X129122000Y-113021000D01*
X108629946Y-100870676D02*
X108299946Y-101110676D01*
X108299946Y-100630676D01*
X108629946Y-100870676D01*
G36*
X108629946Y-100870676D02*
G01*
X108299946Y-101110676D01*
X108299946Y-100630676D01*
X108629946Y-100870676D01*
G37*
%TO.C,C18*%
X181800747Y-91189537D02*
X181800747Y-90667033D01*
X183270747Y-91189537D02*
X183270747Y-90667033D01*
%TO.C,C16*%
X141065841Y-121104042D02*
X140543337Y-121104042D01*
X141065841Y-122574042D02*
X140543337Y-122574042D01*
%TD*%
%LPC*%
D12*
%TO.C,C11*%
X159268831Y-122063721D03*
X159268831Y-119988721D03*
%TD*%
%TO.C,C10*%
X182664179Y-119988974D03*
X182664179Y-122063974D03*
%TD*%
D13*
%TO.C,J1*%
X157461000Y-100833000D03*
X203681000Y-100833000D03*
%TD*%
D14*
%TO.C,C12*%
X151995500Y-121896948D03*
X149920500Y-121896948D03*
%TD*%
D15*
%TO.C,U10*%
X198732000Y-110727000D03*
X197462000Y-110727000D03*
X196192000Y-110727000D03*
X194912000Y-110727000D03*
X193662000Y-110727000D03*
X192382000Y-110727000D03*
X191112000Y-110727000D03*
X189842000Y-110727000D03*
X188572000Y-110727000D03*
X187302000Y-110727000D03*
X186032000Y-110727000D03*
X184762000Y-110727000D03*
X200002000Y-110727000D03*
X201272000Y-110727000D03*
X202542000Y-110727000D03*
X203812000Y-110727000D03*
X203812000Y-121927000D03*
X202542000Y-121927000D03*
X201272000Y-121927000D03*
X200002000Y-121927000D03*
X198732000Y-121927000D03*
X197462000Y-121927000D03*
X186032000Y-121927000D03*
X194912000Y-121927000D03*
X187302000Y-121927000D03*
X189842000Y-121927000D03*
X191112000Y-121927000D03*
X192382000Y-121927000D03*
X188572000Y-121927000D03*
X193662000Y-121927000D03*
X196192000Y-121927000D03*
X184762000Y-121927000D03*
%TD*%
%TO.C,U19*%
X161521000Y-80501000D03*
X162791000Y-80501000D03*
X164061000Y-80501000D03*
X165331000Y-80501000D03*
X166601000Y-80501000D03*
X167871000Y-80501000D03*
X169141000Y-80501000D03*
X170421000Y-80501000D03*
X171671000Y-80501000D03*
X172951000Y-80501000D03*
X174221000Y-80501000D03*
X175491000Y-80501000D03*
X176761000Y-80501000D03*
X178031000Y-80501000D03*
X179301000Y-80501000D03*
X180571000Y-80501000D03*
X180571000Y-91701000D03*
X179301000Y-91701000D03*
X178031000Y-91701000D03*
X176761000Y-91701000D03*
X175491000Y-91701000D03*
X174221000Y-91701000D03*
X172951000Y-91701000D03*
X171671000Y-91701000D03*
X170421000Y-91701000D03*
X169141000Y-91701000D03*
X167871000Y-91701000D03*
X166601000Y-91701000D03*
X165331000Y-91701000D03*
X164061000Y-91701000D03*
X162791000Y-91701000D03*
X161521000Y-91701000D03*
%TD*%
%TO.C,U18*%
X198732000Y-80501000D03*
X197462000Y-80501000D03*
X196192000Y-80501000D03*
X194912000Y-80501000D03*
X193662000Y-80501000D03*
X192382000Y-80501000D03*
X191112000Y-80501000D03*
X189842000Y-80501000D03*
X188572000Y-80501000D03*
X187302000Y-80501000D03*
X186032000Y-80501000D03*
X184762000Y-80501000D03*
X200002000Y-80501000D03*
X201272000Y-80501000D03*
X202542000Y-80501000D03*
X203812000Y-80501000D03*
X203812000Y-91701000D03*
X202542000Y-91701000D03*
X201272000Y-91701000D03*
X200002000Y-91701000D03*
X198732000Y-91701000D03*
X197462000Y-91701000D03*
X186032000Y-91701000D03*
X194912000Y-91701000D03*
X187302000Y-91701000D03*
X189842000Y-91701000D03*
X191112000Y-91701000D03*
X192382000Y-91701000D03*
X188572000Y-91701000D03*
X193662000Y-91701000D03*
X196192000Y-91701000D03*
X184762000Y-91701000D03*
%TD*%
%TO.C,U11*%
X161521000Y-110727000D03*
X162791000Y-110727000D03*
X164061000Y-110727000D03*
X165331000Y-110727000D03*
X166601000Y-110727000D03*
X167871000Y-110727000D03*
X169141000Y-110727000D03*
X170421000Y-110727000D03*
X171671000Y-110727000D03*
X172951000Y-110727000D03*
X174221000Y-110727000D03*
X175491000Y-110727000D03*
X176761000Y-110727000D03*
X178031000Y-110727000D03*
X179301000Y-110727000D03*
X180571000Y-110727000D03*
X180571000Y-121927000D03*
X179301000Y-121927000D03*
X178031000Y-121927000D03*
X176761000Y-121927000D03*
X175491000Y-121927000D03*
X174221000Y-121927000D03*
X172951000Y-121927000D03*
X171671000Y-121927000D03*
X170421000Y-121927000D03*
X169141000Y-121927000D03*
X167871000Y-121927000D03*
X166601000Y-121927000D03*
X165331000Y-121927000D03*
X164061000Y-121927000D03*
X162791000Y-121927000D03*
X161521000Y-121927000D03*
%TD*%
%TO.C,U13*%
X109197000Y-117585000D03*
X110467000Y-117585000D03*
X111737000Y-117585000D03*
X113007000Y-117585000D03*
X114277000Y-117585000D03*
X115547000Y-117585000D03*
X116817000Y-117585000D03*
X118097000Y-117585000D03*
X119347000Y-117585000D03*
X120627000Y-117585000D03*
X121897000Y-117585000D03*
X123167000Y-117585000D03*
X125707000Y-117585000D03*
X125707000Y-128785000D03*
X126977000Y-128785000D03*
X128247000Y-117585000D03*
X126977000Y-117585000D03*
X128247000Y-128785000D03*
X123167000Y-128785000D03*
X124437000Y-117585000D03*
X124437000Y-128785000D03*
X121897000Y-128785000D03*
X120627000Y-128785000D03*
X119347000Y-128785000D03*
X118097000Y-128785000D03*
X116817000Y-128785000D03*
X115547000Y-128785000D03*
X114277000Y-128785000D03*
X113007000Y-128785000D03*
X111737000Y-128785000D03*
X110467000Y-128785000D03*
X109197000Y-128785000D03*
%TD*%
D16*
%TO.C,C14*%
X182777789Y-110383995D03*
X182777789Y-112458995D03*
%TD*%
%TO.C,C20*%
X157085800Y-93170047D03*
X157085800Y-95245047D03*
%TD*%
D17*
%TO.C,U12*%
X144110000Y-119629000D03*
X144110000Y-118359000D03*
X144110000Y-117089000D03*
X144110000Y-115819000D03*
X144110000Y-114549000D03*
X144110000Y-113279000D03*
X144110000Y-112009000D03*
X144110000Y-110729000D03*
X144110000Y-109479000D03*
X144110000Y-108199000D03*
X144110000Y-106929000D03*
X144110000Y-105659000D03*
X155310000Y-101849000D03*
X144110000Y-101849000D03*
X155310000Y-103119000D03*
X144110000Y-100579000D03*
X155310000Y-100579000D03*
X144110000Y-103119000D03*
X155310000Y-104389000D03*
X144110000Y-104389000D03*
X155310000Y-105659000D03*
X155310000Y-106929000D03*
X155310000Y-108199000D03*
X155310000Y-109479000D03*
X155310000Y-110729000D03*
X155310000Y-112009000D03*
X155310000Y-113279000D03*
X155310000Y-114549000D03*
X155310000Y-115819000D03*
X155310000Y-117089000D03*
X155310000Y-118359000D03*
X155310000Y-119629000D03*
%TD*%
D15*
%TO.C,U15*%
X161521000Y-95487000D03*
X162791000Y-95487000D03*
X164061000Y-95487000D03*
X165331000Y-95487000D03*
X166601000Y-95487000D03*
X167871000Y-95487000D03*
X169141000Y-95487000D03*
X170421000Y-95487000D03*
X171671000Y-95487000D03*
X172951000Y-95487000D03*
X174221000Y-95487000D03*
X175491000Y-95487000D03*
X176761000Y-95487000D03*
X178031000Y-95487000D03*
X179301000Y-95487000D03*
X180571000Y-95487000D03*
X180571000Y-106687000D03*
X179301000Y-106687000D03*
X178031000Y-106687000D03*
X176761000Y-106687000D03*
X175491000Y-106687000D03*
X174221000Y-106687000D03*
X172951000Y-106687000D03*
X171671000Y-106687000D03*
X170421000Y-106687000D03*
X169141000Y-106687000D03*
X167871000Y-106687000D03*
X166601000Y-106687000D03*
X165331000Y-106687000D03*
X164061000Y-106687000D03*
X162791000Y-106687000D03*
X161521000Y-106687000D03*
%TD*%
D12*
%TO.C,C13*%
X107210864Y-128004984D03*
X107210864Y-125929984D03*
%TD*%
%TO.C,C15*%
X159413011Y-106970037D03*
X159413011Y-104895037D03*
%TD*%
D15*
%TO.C,U14*%
X198732000Y-95487000D03*
X197462000Y-95487000D03*
X196192000Y-95487000D03*
X194912000Y-95487000D03*
X193662000Y-95487000D03*
X192382000Y-95487000D03*
X191112000Y-95487000D03*
X189842000Y-95487000D03*
X188572000Y-95487000D03*
X187302000Y-95487000D03*
X186032000Y-95487000D03*
X184762000Y-95487000D03*
X200002000Y-95487000D03*
X201272000Y-95487000D03*
X202542000Y-95487000D03*
X203812000Y-95487000D03*
X203812000Y-106687000D03*
X202542000Y-106687000D03*
X201272000Y-106687000D03*
X200002000Y-106687000D03*
X198732000Y-106687000D03*
X197462000Y-106687000D03*
X186032000Y-106687000D03*
X194912000Y-106687000D03*
X187302000Y-106687000D03*
X189842000Y-106687000D03*
X191112000Y-106687000D03*
X192382000Y-106687000D03*
X188572000Y-106687000D03*
X193662000Y-106687000D03*
X196192000Y-106687000D03*
X184762000Y-106687000D03*
%TD*%
%TO.C,U20*%
X154282000Y-78100000D03*
X153012000Y-78100000D03*
X151742000Y-78100000D03*
X150462000Y-78100000D03*
X149212000Y-78100000D03*
X147932000Y-78100000D03*
X146662000Y-78100000D03*
X145392000Y-78100000D03*
X144122000Y-78100000D03*
X142852000Y-78100000D03*
X141582000Y-78100000D03*
X140312000Y-78100000D03*
X155552000Y-89300000D03*
X155552000Y-78100000D03*
X156822000Y-78100000D03*
X159362000Y-78100000D03*
X154282000Y-89300000D03*
X156822000Y-89300000D03*
X158092000Y-89300000D03*
X158092000Y-78100000D03*
X159362000Y-89300000D03*
X153012000Y-89300000D03*
X141582000Y-89300000D03*
X150462000Y-89300000D03*
X142852000Y-89300000D03*
X145392000Y-89300000D03*
X146662000Y-89300000D03*
X147932000Y-89300000D03*
X144122000Y-89300000D03*
X149212000Y-89300000D03*
X151742000Y-89300000D03*
X140312000Y-89300000D03*
%TD*%
D17*
%TO.C,U16*%
X130394000Y-119629000D03*
X130394000Y-118359000D03*
X130394000Y-117089000D03*
X130394000Y-115819000D03*
X130394000Y-114549000D03*
X130394000Y-113279000D03*
X130394000Y-112009000D03*
X130394000Y-110729000D03*
X130394000Y-109479000D03*
X130394000Y-108199000D03*
X130394000Y-106929000D03*
X130394000Y-105659000D03*
X141594000Y-101849000D03*
X130394000Y-101849000D03*
X141594000Y-103119000D03*
X130394000Y-100579000D03*
X141594000Y-100579000D03*
X130394000Y-103119000D03*
X141594000Y-104389000D03*
X130394000Y-104389000D03*
X141594000Y-105659000D03*
X141594000Y-106929000D03*
X141594000Y-108199000D03*
X141594000Y-109479000D03*
X141594000Y-110729000D03*
X141594000Y-112009000D03*
X141594000Y-113279000D03*
X141594000Y-114549000D03*
X141594000Y-115819000D03*
X141594000Y-117089000D03*
X141594000Y-118359000D03*
X141594000Y-119629000D03*
%TD*%
D16*
%TO.C,C19*%
X159554853Y-93222395D03*
X159554853Y-95297395D03*
%TD*%
D12*
%TO.C,C17*%
X107208295Y-112318690D03*
X107208295Y-110243690D03*
%TD*%
D15*
%TO.C,U17*%
X109197000Y-100821000D03*
X110467000Y-100821000D03*
X111737000Y-100821000D03*
X113007000Y-100821000D03*
X114277000Y-100821000D03*
X115547000Y-100821000D03*
X116817000Y-100821000D03*
X118097000Y-100821000D03*
X119347000Y-100821000D03*
X120627000Y-100821000D03*
X121897000Y-100821000D03*
X123167000Y-100821000D03*
X125707000Y-100821000D03*
X125707000Y-112021000D03*
X126977000Y-112021000D03*
X128247000Y-100821000D03*
X126977000Y-100821000D03*
X128247000Y-112021000D03*
X123167000Y-112021000D03*
X124437000Y-100821000D03*
X124437000Y-112021000D03*
X121897000Y-112021000D03*
X120627000Y-112021000D03*
X119347000Y-112021000D03*
X118097000Y-112021000D03*
X116817000Y-112021000D03*
X115547000Y-112021000D03*
X114277000Y-112021000D03*
X113007000Y-112021000D03*
X111737000Y-112021000D03*
X110467000Y-112021000D03*
X109197000Y-112021000D03*
%TD*%
D12*
%TO.C,C18*%
X182535747Y-91965785D03*
X182535747Y-89890785D03*
%TD*%
D14*
%TO.C,C16*%
X141842089Y-121839042D03*
X139767089Y-121839042D03*
%TD*%
%LPD*%
M02*
