%TF.GenerationSoftware,KiCad,Pcbnew,9.0.1*%
%TF.CreationDate,2025-05-03T15:39:38+02:00*%
%TF.ProjectId,RAMdemption,52414d64-656d-4707-9469-6f6e2e6b6963,rev?*%
%TF.SameCoordinates,Original*%
%TF.FileFunction,Paste,Top*%
%TF.FilePolarity,Positive*%
%FSLAX46Y46*%
G04 Gerber Fmt 4.6, Leading zero omitted, Abs format (unit mm)*
G04 Created by KiCad (PCBNEW 9.0.1) date 2025-05-03 15:39:38*
%MOMM*%
%LPD*%
G01*
G04 APERTURE LIST*
G04 Aperture macros list*
%AMRoundRect*
0 Rectangle with rounded corners*
0 $1 Rounding radius*
0 $2 $3 $4 $5 $6 $7 $8 $9 X,Y pos of 4 corners*
0 Add a 4 corners polygon primitive as box body*
4,1,4,$2,$3,$4,$5,$6,$7,$8,$9,$2,$3,0*
0 Add four circle primitives for the rounded corners*
1,1,$1+$1,$2,$3*
1,1,$1+$1,$4,$5*
1,1,$1+$1,$6,$7*
1,1,$1+$1,$8,$9*
0 Add four rect primitives between the rounded corners*
20,1,$1+$1,$2,$3,$4,$5,0*
20,1,$1+$1,$4,$5,$6,$7,0*
20,1,$1+$1,$6,$7,$8,$9,0*
20,1,$1+$1,$8,$9,$2,$3,0*%
G04 Aperture macros list end*
%ADD10RoundRect,0.250000X0.475000X-0.337500X0.475000X0.337500X-0.475000X0.337500X-0.475000X-0.337500X0*%
%ADD11RoundRect,0.250000X-0.475000X0.337500X-0.475000X-0.337500X0.475000X-0.337500X0.475000X0.337500X0*%
%ADD12R,0.600000X1.600000*%
%ADD13RoundRect,0.250000X-0.337500X-0.475000X0.337500X-0.475000X0.337500X0.475000X-0.337500X0.475000X0*%
%ADD14R,1.600000X0.600000*%
%ADD15RoundRect,0.100000X0.270000X-1.295000X0.270000X1.295000X-0.270000X1.295000X-0.270000X-1.295000X0*%
G04 APERTURE END LIST*
D10*
%TO.C,C7*%
X159340126Y-109011426D03*
X159340126Y-106936426D03*
%TD*%
D11*
%TO.C,C6*%
X182777421Y-110386932D03*
X182777421Y-112461932D03*
%TD*%
D12*
%TO.C,U5*%
X109197000Y-128785000D03*
X110467000Y-128785000D03*
X111737000Y-128785000D03*
X113007000Y-128785000D03*
X114277000Y-128785000D03*
X115547000Y-128785000D03*
X116817000Y-128785000D03*
X118097000Y-128785000D03*
X119347000Y-128785000D03*
X120627000Y-128785000D03*
X121897000Y-128785000D03*
X123167000Y-128785000D03*
X125707000Y-128785000D03*
X125707000Y-117585000D03*
X126977000Y-117585000D03*
X128247000Y-128785000D03*
X126977000Y-128785000D03*
X128247000Y-117585000D03*
X123167000Y-117585000D03*
X124437000Y-128785000D03*
X124437000Y-117585000D03*
X121897000Y-117585000D03*
X120627000Y-117585000D03*
X119347000Y-117585000D03*
X118097000Y-117585000D03*
X116817000Y-117585000D03*
X115547000Y-117585000D03*
X114277000Y-117585000D03*
X113007000Y-117585000D03*
X111737000Y-117585000D03*
X110467000Y-117585000D03*
X109197000Y-117585000D03*
%TD*%
D13*
%TO.C,C1*%
X130450468Y-121711800D03*
X132525468Y-121711800D03*
%TD*%
D11*
%TO.C,C4*%
X157083694Y-93195858D03*
X157083694Y-95270858D03*
%TD*%
D12*
%TO.C,U6*%
X198732000Y-121927000D03*
X197462000Y-121927000D03*
X196192000Y-121927000D03*
X194912000Y-121927000D03*
X193662000Y-121927000D03*
X192382000Y-121927000D03*
X191112000Y-121927000D03*
X189842000Y-121927000D03*
X188572000Y-121927000D03*
X187302000Y-121927000D03*
X186032000Y-121927000D03*
X184762000Y-121927000D03*
X200002000Y-121927000D03*
X201272000Y-121927000D03*
X202542000Y-121927000D03*
X203812000Y-121927000D03*
X203812000Y-110727000D03*
X202542000Y-110727000D03*
X201272000Y-110727000D03*
X200002000Y-110727000D03*
X198732000Y-110727000D03*
X197462000Y-110727000D03*
X186032000Y-110727000D03*
X194912000Y-110727000D03*
X187302000Y-110727000D03*
X189842000Y-110727000D03*
X191112000Y-110727000D03*
X192382000Y-110727000D03*
X188572000Y-110727000D03*
X193662000Y-110727000D03*
X196192000Y-110727000D03*
X184762000Y-110727000D03*
%TD*%
%TO.C,U2*%
X198732000Y-91701000D03*
X197462000Y-91701000D03*
X196192000Y-91701000D03*
X194912000Y-91701000D03*
X193662000Y-91701000D03*
X192382000Y-91701000D03*
X191112000Y-91701000D03*
X189842000Y-91701000D03*
X188572000Y-91701000D03*
X187302000Y-91701000D03*
X186032000Y-91701000D03*
X184762000Y-91701000D03*
X200002000Y-91701000D03*
X201272000Y-91701000D03*
X202542000Y-91701000D03*
X203812000Y-91701000D03*
X203812000Y-80501000D03*
X202542000Y-80501000D03*
X201272000Y-80501000D03*
X200002000Y-80501000D03*
X198732000Y-80501000D03*
X197462000Y-80501000D03*
X186032000Y-80501000D03*
X194912000Y-80501000D03*
X187302000Y-80501000D03*
X189842000Y-80501000D03*
X191112000Y-80501000D03*
X192382000Y-80501000D03*
X188572000Y-80501000D03*
X193662000Y-80501000D03*
X196192000Y-80501000D03*
X184762000Y-80501000D03*
%TD*%
%TO.C,U9*%
X109197000Y-112021000D03*
X110467000Y-112021000D03*
X111737000Y-112021000D03*
X113007000Y-112021000D03*
X114277000Y-112021000D03*
X115547000Y-112021000D03*
X116817000Y-112021000D03*
X118097000Y-112021000D03*
X119347000Y-112021000D03*
X120627000Y-112021000D03*
X121897000Y-112021000D03*
X123167000Y-112021000D03*
X125707000Y-112021000D03*
X125707000Y-100821000D03*
X126977000Y-100821000D03*
X128247000Y-112021000D03*
X126977000Y-112021000D03*
X128247000Y-100821000D03*
X123167000Y-100821000D03*
X124437000Y-112021000D03*
X124437000Y-100821000D03*
X121897000Y-100821000D03*
X120627000Y-100821000D03*
X119347000Y-100821000D03*
X118097000Y-100821000D03*
X116817000Y-100821000D03*
X115547000Y-100821000D03*
X114277000Y-100821000D03*
X113007000Y-100821000D03*
X111737000Y-100821000D03*
X110467000Y-100821000D03*
X109197000Y-100821000D03*
%TD*%
%TO.C,U4*%
X154282000Y-89300000D03*
X153012000Y-89300000D03*
X151742000Y-89300000D03*
X150462000Y-89300000D03*
X149212000Y-89300000D03*
X147932000Y-89300000D03*
X146662000Y-89300000D03*
X145392000Y-89300000D03*
X144122000Y-89300000D03*
X142852000Y-89300000D03*
X141582000Y-89300000D03*
X140312000Y-89300000D03*
X155552000Y-78100000D03*
X155552000Y-89300000D03*
X156822000Y-89300000D03*
X159362000Y-89300000D03*
X154282000Y-78100000D03*
X156822000Y-78100000D03*
X158092000Y-78100000D03*
X158092000Y-89300000D03*
X159362000Y-78100000D03*
X153012000Y-78100000D03*
X141582000Y-78100000D03*
X150462000Y-78100000D03*
X142852000Y-78100000D03*
X145392000Y-78100000D03*
X146662000Y-78100000D03*
X147932000Y-78100000D03*
X144122000Y-78100000D03*
X149212000Y-78100000D03*
X151742000Y-78100000D03*
X140312000Y-78100000D03*
%TD*%
D11*
%TO.C,C3*%
X159563884Y-93239668D03*
X159563884Y-95314668D03*
%TD*%
%TO.C,C5*%
X107225327Y-117381121D03*
X107225327Y-119456121D03*
%TD*%
%TO.C,C2*%
X182516568Y-80229384D03*
X182516568Y-82304384D03*
%TD*%
D14*
%TO.C,U8*%
X155310000Y-119629000D03*
X155310000Y-118359000D03*
X155310000Y-117089000D03*
X155310000Y-115819000D03*
X155310000Y-114549000D03*
X155310000Y-113279000D03*
X155310000Y-112009000D03*
X155310000Y-110729000D03*
X155310000Y-109479000D03*
X155310000Y-108199000D03*
X155310000Y-106929000D03*
X155310000Y-105659000D03*
X144110000Y-101849000D03*
X155310000Y-101849000D03*
X144110000Y-103119000D03*
X155310000Y-100579000D03*
X144110000Y-100579000D03*
X155310000Y-103119000D03*
X144110000Y-104389000D03*
X155310000Y-104389000D03*
X144110000Y-105659000D03*
X144110000Y-106929000D03*
X144110000Y-108199000D03*
X144110000Y-109479000D03*
X144110000Y-110729000D03*
X144110000Y-112009000D03*
X144110000Y-113279000D03*
X144110000Y-114549000D03*
X144110000Y-115819000D03*
X144110000Y-117089000D03*
X144110000Y-118359000D03*
X144110000Y-119629000D03*
%TD*%
D15*
%TO.C,J1*%
X158981000Y-99183000D03*
X158981000Y-102483000D03*
X160251000Y-99183000D03*
X160251000Y-102483000D03*
X161521000Y-99183000D03*
X161521000Y-102483000D03*
X162791000Y-99183000D03*
X162791000Y-102483000D03*
X164061000Y-99183000D03*
X164061000Y-102483000D03*
X165331000Y-99183000D03*
X165331000Y-102483000D03*
X166601000Y-99183000D03*
X166601000Y-102483000D03*
X167871000Y-99183000D03*
X167871000Y-102483000D03*
X169141000Y-99183000D03*
X169141000Y-102483000D03*
X170411000Y-99183000D03*
X170411000Y-102483000D03*
X171681000Y-99183000D03*
X171681000Y-102483000D03*
X172951000Y-99183000D03*
X172951000Y-102483000D03*
X174221000Y-99183000D03*
X174221000Y-102483000D03*
X175491000Y-99183000D03*
X175491000Y-102483000D03*
X176761000Y-99183000D03*
X176761000Y-102483000D03*
X178031000Y-99183000D03*
X178031000Y-102483000D03*
X179301000Y-99183000D03*
X179301000Y-102483000D03*
X180571000Y-99183000D03*
X180571000Y-102483000D03*
X181841000Y-99183000D03*
X181841000Y-102483000D03*
X183111000Y-99183000D03*
X183111000Y-102483000D03*
X184381000Y-99183000D03*
X184381000Y-102483000D03*
X185651000Y-99183000D03*
X185651000Y-102483000D03*
X186921000Y-99183000D03*
X186921000Y-102483000D03*
X188191000Y-99183000D03*
X188191000Y-102483000D03*
X189461000Y-99183000D03*
X189461000Y-102483000D03*
X190731000Y-99183000D03*
X190731000Y-102483000D03*
X192001000Y-99183000D03*
X192001000Y-102483000D03*
X193271000Y-99183000D03*
X193271000Y-102483000D03*
X194541000Y-99183000D03*
X194541000Y-102483000D03*
X195811000Y-99183000D03*
X195811000Y-102483000D03*
X197081000Y-99183000D03*
X197081000Y-102483000D03*
X198351000Y-99183000D03*
X198351000Y-102483000D03*
X199621000Y-99183000D03*
X199621000Y-102483000D03*
X200891000Y-99183000D03*
X200891000Y-102483000D03*
X202161000Y-99183000D03*
X202161000Y-102483000D03*
%TD*%
D13*
%TO.C,C8*%
X143902057Y-121884937D03*
X145977057Y-121884937D03*
%TD*%
D14*
%TO.C,U1*%
X141594000Y-119629000D03*
X141594000Y-118359000D03*
X141594000Y-117089000D03*
X141594000Y-115819000D03*
X141594000Y-114549000D03*
X141594000Y-113279000D03*
X141594000Y-112009000D03*
X141594000Y-110729000D03*
X141594000Y-109479000D03*
X141594000Y-108199000D03*
X141594000Y-106929000D03*
X141594000Y-105659000D03*
X141594000Y-103119000D03*
X130394000Y-103119000D03*
X130394000Y-101849000D03*
X141594000Y-100579000D03*
X141594000Y-101849000D03*
X130394000Y-100579000D03*
X130394000Y-105659000D03*
X141594000Y-104389000D03*
X130394000Y-104389000D03*
X130394000Y-106929000D03*
X130394000Y-108199000D03*
X130394000Y-109479000D03*
X130394000Y-110729000D03*
X130394000Y-112009000D03*
X130394000Y-113279000D03*
X130394000Y-114549000D03*
X130394000Y-115819000D03*
X130394000Y-117089000D03*
X130394000Y-118359000D03*
X130394000Y-119629000D03*
%TD*%
D12*
%TO.C,U3*%
X161521000Y-91701000D03*
X162791000Y-91701000D03*
X164061000Y-91701000D03*
X165331000Y-91701000D03*
X166601000Y-91701000D03*
X167871000Y-91701000D03*
X169141000Y-91701000D03*
X170421000Y-91701000D03*
X171671000Y-91701000D03*
X172951000Y-91701000D03*
X174221000Y-91701000D03*
X175491000Y-91701000D03*
X176761000Y-91701000D03*
X178031000Y-91701000D03*
X179301000Y-91701000D03*
X180571000Y-91701000D03*
X180571000Y-80501000D03*
X179301000Y-80501000D03*
X178031000Y-80501000D03*
X176761000Y-80501000D03*
X175491000Y-80501000D03*
X174221000Y-80501000D03*
X172951000Y-80501000D03*
X171671000Y-80501000D03*
X170421000Y-80501000D03*
X169141000Y-80501000D03*
X167871000Y-80501000D03*
X166601000Y-80501000D03*
X165331000Y-80501000D03*
X164061000Y-80501000D03*
X162791000Y-80501000D03*
X161521000Y-80501000D03*
%TD*%
D11*
%TO.C,C9*%
X107188958Y-100565163D03*
X107188958Y-102640163D03*
%TD*%
D12*
%TO.C,U7*%
X161521000Y-121927000D03*
X162791000Y-121927000D03*
X164061000Y-121927000D03*
X165331000Y-121927000D03*
X166601000Y-121927000D03*
X167871000Y-121927000D03*
X169141000Y-121927000D03*
X170421000Y-121927000D03*
X171671000Y-121927000D03*
X172951000Y-121927000D03*
X174221000Y-121927000D03*
X175491000Y-121927000D03*
X176761000Y-121927000D03*
X178031000Y-121927000D03*
X179301000Y-121927000D03*
X180571000Y-121927000D03*
X180571000Y-110727000D03*
X179301000Y-110727000D03*
X178031000Y-110727000D03*
X176761000Y-110727000D03*
X175491000Y-110727000D03*
X174221000Y-110727000D03*
X172951000Y-110727000D03*
X171671000Y-110727000D03*
X170421000Y-110727000D03*
X169141000Y-110727000D03*
X167871000Y-110727000D03*
X166601000Y-110727000D03*
X165331000Y-110727000D03*
X164061000Y-110727000D03*
X162791000Y-110727000D03*
X161521000Y-110727000D03*
%TD*%
M02*
