M48
; DRILL file {KiCad 9.0.1} date 2025-05-03T15:41:33+0200
; FORMAT={-:-/ absolute / metric / decimal}
; #@! TF.CreationDate,2025-05-03T15:41:33+02:00
; #@! TF.GenerationSoftware,Kicad,Pcbnew,9.0.1
; #@! TF.FileFunction,Plated,1,6,PTH
FMAT,2
METRIC
; #@! TA.AperFunction,Plated,PTH,ViaDrill
T1C0.300
; #@! TA.AperFunction,Plated,PTH,ComponentDrill
T2C1.190
%
G90
G05
T1
X107.189Y-100.565
X107.208Y-110.244
X107.208Y-113.716
X107.208Y-114.529
X107.211Y-125.93
X107.211Y-128.005
X107.225Y-115.24
X107.315Y-106.68
X108.077Y-108.331
X108.204Y-105.156
X108.204Y-121.539
X108.331Y-123.571
X109.197Y-110.485
X109.197Y-114.803
X109.197Y-127.435
X109.866Y-119.248
X110.467Y-102.23
X110.467Y-113.66
X110.467Y-124.963
X111.136Y-121.285
X111.737Y-102.738
X111.737Y-115.438
X111.737Y-123.439
X112.406Y-119.253
X113.007Y-102.23
X113.007Y-114.676
X113.007Y-124.582
X113.608Y-120.645
X114.277Y-102.738
X114.277Y-115.438
X114.277Y-123.058
X114.946Y-119.121
X115.547Y-102.23
X115.547Y-114.549
X115.547Y-124.201
X116.216Y-120.269
X116.817Y-102.738
X116.817Y-115.438
X116.817Y-122.804
X117.496Y-118.867
X118.087Y-102.23
X118.097Y-114.549
X118.097Y-123.693
X118.746Y-119.629
X119.347Y-115.438
X119.347Y-122.423
X119.357Y-102.738
X120.026Y-118.994
X120.627Y-104.14
X120.627Y-114.93
X120.627Y-123.185
X121.177Y-127.61
X121.291Y-99.691
X121.897Y-115.438
X121.897Y-121.539
X122.498Y-118.994
X123.167Y-102.23
X123.167Y-114.422
X123.167Y-122.047
X123.834Y-116.452
X124.437Y-102.738
X124.437Y-114.803
X124.437Y-118.867
X125.072Y-104.902
X125.106Y-116.073
X125.707Y-102.23
X125.707Y-114.295
X125.707Y-119.502
X126.308Y-104.013
X126.374Y-116.452
X126.977Y-102.738
X126.977Y-118.867
X127.0Y-114.935
X128.146Y-115.747
X128.186Y-114.428
X128.247Y-102.171
X128.247Y-110.617
X128.247Y-127.385
X128.257Y-113.421
X129.097Y-112.293
X129.224Y-126.238
X129.794Y-128.651
X130.152Y-124.587
X131.628Y-114.13
X131.699Y-103.124
X131.699Y-105.664
X131.93Y-110.739
X132.08Y-101.854
X132.461Y-100.519
X132.461Y-107.569
X132.593Y-113.274
X132.602Y-121.788
X133.096Y-108.966
X133.604Y-101.219
X133.604Y-112.009
X134.239Y-120.523
X135.128Y-104.394
X135.255Y-101.6
X136.906Y-106.934
X137.668Y-118.994
X138.278Y-101.473
X138.557Y-106.26
X138.938Y-103.72
X139.042Y-112.61
X139.042Y-115.15
X139.09Y-100.559
X139.446Y-119.634
X139.55Y-107.53
X139.677Y-110.08
X139.758Y-83.007
X139.767Y-121.562
X139.827Y-101.854
X140.185Y-100.579
X140.208Y-108.8
X140.208Y-117.724
X140.312Y-111.33
X140.312Y-115.819
X140.344Y-104.389
X140.439Y-113.914
X140.608Y-86.736
X140.992Y-120.614
X141.582Y-88.006
X141.836Y-122.462
X142.217Y-79.497
X142.852Y-86.736
X143.052Y-120.645
X143.487Y-80.513
X143.868Y-122.462
X144.122Y-88.006
X144.757Y-79.497
X144.757Y-86.284
X145.243Y-111.406
X145.392Y-87.503
X145.407Y-110.127
X145.773Y-102.518
X145.977Y-121.612
X146.027Y-80.513
X146.055Y-118.354
X146.057Y-100.871
X146.281Y-103.788
X146.281Y-113.948
X146.281Y-116.454
X146.431Y-112.644
X146.621Y-108.438
X146.662Y-88.05
X146.812Y-109.539
X146.916Y-115.15
X147.297Y-79.497
X147.523Y-119.313
X147.828Y-100.838
X147.932Y-86.736
X148.567Y-80.513
X149.202Y-88.05
X149.301Y-101.567
X149.837Y-79.497
X149.911Y-105.058
X149.921Y-121.562
X150.462Y-86.182
X150.622Y-106.892
X150.876Y-111.058
X151.003Y-113.279
X151.107Y-80.513
X151.742Y-86.843
X151.892Y-115.819
X152.005Y-107.301
X152.019Y-122.462
X152.265Y-108.819
X152.377Y-79.497
X152.502Y-100.66
X152.552Y-87.859
X152.885Y-103.119
X152.885Y-105.659
X153.162Y-114.549
X153.518Y-112.009
X153.568Y-120.495
X153.647Y-117.089
X153.67Y-80.391
X153.721Y-86.831
X153.873Y-119.151
X153.901Y-101.849
X153.901Y-104.389
X153.901Y-109.469
X154.282Y-88.05
X154.917Y-79.497
X155.552Y-87.752
X155.702Y-121.539
X156.187Y-79.751
X156.35Y-120.424
X156.822Y-88.006
X156.845Y-96.52
X157.084Y-93.196
X157.084Y-95.271
X157.099Y-91.694
X157.353Y-98.044
X157.457Y-79.248
X157.48Y-122.462
X157.887Y-119.676
X157.924Y-121.612
X157.988Y-105.664
X157.988Y-108.331
X158.092Y-87.752
X158.346Y-95.271
X158.496Y-90.932
X158.661Y-79.883
X158.877Y-120.777
X158.981Y-98.166
X158.981Y-103.5
X159.34Y-109.011
X159.362Y-87.752
X159.832Y-91.181
X160.251Y-97.277
X160.394Y-121.004
X160.401Y-111.887
X160.621Y-79.663
X160.688Y-104.646
X160.72Y-81.661
X160.782Y-90.17
X160.843Y-109.489
X161.394Y-105.278
X161.469Y-89.079
X161.521Y-93.051
X161.521Y-96.769
X161.747Y-108.534
X162.791Y-90.419
X162.791Y-93.751
X162.791Y-97.404
X162.791Y-109.469
X162.791Y-115.951
X163.068Y-82.281
X163.373Y-120.776
X164.061Y-89.657
X164.061Y-93.142
X164.061Y-96.769
X164.061Y-108.707
X164.061Y-115.323
X164.186Y-112.141
X164.599Y-82.035
X164.696Y-120.396
X165.331Y-90.419
X165.331Y-93.802
X165.331Y-97.404
X165.331Y-109.477
X165.331Y-111.977
X165.881Y-82.36
X165.966Y-120.777
X166.601Y-89.657
X166.601Y-93.142
X166.601Y-96.769
X166.601Y-108.707
X166.601Y-114.922
X167.228Y-81.902
X167.236Y-119.756
X167.871Y-90.419
X167.871Y-93.599
X167.871Y-97.404
X167.871Y-109.469
X167.871Y-114.521
X168.506Y-120.518
X168.506Y-81.601
X169.141Y-89.53
X169.141Y-93.142
X169.141Y-96.769
X169.141Y-108.707
X169.141Y-114.12
X169.691Y-82.164
X169.776Y-119.756
X170.411Y-90.419
X170.411Y-93.467
X170.411Y-97.404
X170.421Y-113.719
X170.426Y-109.327
X171.046Y-81.91
X171.046Y-120.518
X171.671Y-89.281
X171.671Y-112.776
X171.681Y-92.959
X171.681Y-96.769
X171.681Y-108.707
X172.316Y-119.756
X172.401Y-81.91
X172.951Y-89.535
X172.951Y-93.467
X172.951Y-97.404
X172.951Y-109.477
X172.951Y-112.014
X173.501Y-82.813
X173.713Y-120.137
X174.136Y-104.648
X174.193Y-112.497
X174.221Y-92.951
X174.221Y-96.769
X174.221Y-108.077
X174.222Y-89.154
X174.244Y-81.915
X174.602Y-119.121
X174.856Y-120.772
X175.409Y-83.033
X175.491Y-90.348
X175.491Y-93.802
X175.491Y-97.404
X175.491Y-104.902
X175.491Y-109.477
X175.491Y-111.977
X176.126Y-81.783
X176.126Y-120.137
X176.761Y-90.043
X176.761Y-92.959
X176.761Y-96.769
X176.761Y-104.648
X176.761Y-108.707
X176.761Y-112.517
X177.396Y-82.291
X177.396Y-120.518
X178.031Y-90.419
X178.031Y-93.467
X178.031Y-97.404
X178.031Y-105.156
X178.031Y-109.477
X178.031Y-111.977
X178.666Y-81.783
X178.666Y-120.264
X179.301Y-89.657
X179.301Y-92.951
X179.301Y-98.166
X179.301Y-104.328
X179.301Y-108.707
X179.301Y-112.517
X179.851Y-119.756
X180.053Y-81.806
X180.571Y-98.637
X180.571Y-104.673
X180.571Y-112.077
X180.848Y-108.6
X181.102Y-82.626
X181.305Y-105.74
X181.356Y-97.282
X181.356Y-120.015
X181.864Y-104.394
X182.415Y-106.756
X182.488Y-82.291
X182.517Y-80.103
X182.536Y-89.891
X182.536Y-91.966
X182.672Y-120.009
X182.672Y-122.084
X182.777Y-112.462
X182.801Y-110.407
X183.134Y-97.409
X183.134Y-104.775
X183.388Y-114.046
X183.685Y-106.096
X184.048Y-82.22
X184.404Y-96.774
X184.404Y-104.267
X184.658Y-108.712
X184.762Y-90.351
X184.762Y-93.853
X184.762Y-120.391
X185.224Y-105.361
X185.651Y-97.79
X186.032Y-89.657
X186.032Y-93.467
X186.032Y-108.707
X186.032Y-112.517
X186.284Y-104.419
X186.582Y-120.645
X186.667Y-81.783
X186.921Y-98.637
X187.3Y-96.85
X187.302Y-90.419
X187.302Y-92.959
X187.302Y-109.469
X187.302Y-112.009
X187.452Y-105.437
X187.852Y-119.883
X187.937Y-82.418
X188.572Y-89.657
X188.572Y-93.467
X188.572Y-105.523
X188.572Y-108.707
X188.572Y-112.517
X189.122Y-120.645
X189.207Y-81.783
X189.842Y-90.419
X189.842Y-92.959
X189.842Y-109.469
X189.842Y-111.977
X190.109Y-105.215
X190.392Y-119.883
X190.477Y-82.418
X190.731Y-103.5
X191.112Y-89.657
X191.112Y-93.467
X191.112Y-108.707
X191.112Y-112.517
X191.662Y-120.645
X191.747Y-81.783
X192.001Y-99.183
X192.024Y-101.6
X192.382Y-90.419
X192.382Y-92.959
X192.382Y-109.469
X192.382Y-112.009
X192.932Y-119.883
X193.017Y-82.545
X193.294Y-102.616
X193.652Y-89.657
X193.652Y-93.467
X193.652Y-108.707
X193.652Y-112.517
X194.212Y-81.783
X194.212Y-120.645
X194.437Y-97.282
X194.541Y-99.183
X194.564Y-104.35
X194.922Y-90.419
X194.922Y-92.959
X194.922Y-109.469
X194.922Y-112.009
X195.462Y-82.418
X195.462Y-119.883
X195.834Y-104.775
X195.961Y-97.105
X196.192Y-89.657
X196.192Y-93.193
X196.192Y-108.707
X196.192Y-112.517
X196.742Y-118.994
X196.827Y-81.783
X196.861Y-94.31
X196.977Y-105.283
X197.327Y-120.256
X197.462Y-90.419
X197.462Y-92.959
X197.485Y-108.204
X197.97Y-118.491
X198.12Y-82.423
X198.171Y-84.252
X198.351Y-99.183
X198.381Y-104.455
X198.732Y-89.657
X198.732Y-93.467
X198.732Y-108.707
X198.732Y-113.03
X199.034Y-96.749
X199.282Y-81.783
X199.282Y-120.645
X199.621Y-100.076
X200.002Y-90.419
X200.002Y-92.959
X200.002Y-109.469
X200.002Y-112.009
X200.552Y-82.799
X200.552Y-119.883
X200.623Y-104.373
X201.272Y-89.657
X201.272Y-93.467
X201.272Y-108.707
X201.272Y-113.03
X201.822Y-82.037
X201.822Y-120.645
X202.161Y-102.483
X202.169Y-104.35
X202.542Y-90.419
X202.542Y-92.959
X202.542Y-109.469
X202.542Y-112.009
X202.841Y-97.232
X203.092Y-118.867
X203.442Y-94.141
X203.558Y-83.815
X203.656Y-82.799
X203.656Y-113.914
X203.656Y-119.999
X203.685Y-115.311
X203.706Y-89.149
X203.706Y-99.187
X203.706Y-108.707
X203.812Y-95.487
T2
X157.461Y-100.833
X203.681Y-100.833
M30
