%TF.GenerationSoftware,KiCad,Pcbnew,9.0.1*%
%TF.CreationDate,2025-05-03T15:39:39+02:00*%
%TF.ProjectId,RAMdemption,52414d64-656d-4707-9469-6f6e2e6b6963,rev?*%
%TF.SameCoordinates,Original*%
%TF.FileFunction,Legend,Top*%
%TF.FilePolarity,Positive*%
%FSLAX46Y46*%
G04 Gerber Fmt 4.6, Leading zero omitted, Abs format (unit mm)*
G04 Created by KiCad (PCBNEW 9.0.1) date 2025-05-03 15:39:39*
%MOMM*%
%LPD*%
G01*
G04 APERTURE LIST*
G04 Aperture macros list*
%AMRoundRect*
0 Rectangle with rounded corners*
0 $1 Rounding radius*
0 $2 $3 $4 $5 $6 $7 $8 $9 X,Y pos of 4 corners*
0 Add a 4 corners polygon primitive as box body*
4,1,4,$2,$3,$4,$5,$6,$7,$8,$9,$2,$3,0*
0 Add four circle primitives for the rounded corners*
1,1,$1+$1,$2,$3*
1,1,$1+$1,$4,$5*
1,1,$1+$1,$6,$7*
1,1,$1+$1,$8,$9*
0 Add four rect primitives between the rounded corners*
20,1,$1+$1,$2,$3,$4,$5,0*
20,1,$1+$1,$4,$5,$6,$7,0*
20,1,$1+$1,$6,$7,$8,$9,0*
20,1,$1+$1,$8,$9,$2,$3,0*%
G04 Aperture macros list end*
%ADD10C,0.100000*%
%ADD11C,0.175000*%
%ADD12C,0.150000*%
%ADD13C,0.120000*%
%ADD14C,0.000000*%
%ADD15RoundRect,0.250000X0.475000X-0.337500X0.475000X0.337500X-0.475000X0.337500X-0.475000X-0.337500X0*%
%ADD16RoundRect,0.250000X-0.475000X0.337500X-0.475000X-0.337500X0.475000X-0.337500X0.475000X0.337500X0*%
%ADD17R,0.600000X1.600000*%
%ADD18RoundRect,0.250000X-0.337500X-0.475000X0.337500X-0.475000X0.337500X0.475000X-0.337500X0.475000X0*%
%ADD19R,1.600000X0.600000*%
%ADD20C,1.650000*%
%ADD21RoundRect,0.100000X0.270000X-1.295000X0.270000X1.295000X-0.270000X1.295000X-0.270000X-1.295000X0*%
G04 APERTURE END LIST*
D10*
X109571000Y-103833000D02*
X114571000Y-103833000D01*
X114571000Y-108833000D01*
X109571000Y-108833000D01*
X109571000Y-103833000D01*
G36*
X109571000Y-103833000D02*
G01*
X114571000Y-103833000D01*
X114571000Y-108833000D01*
X109571000Y-108833000D01*
X109571000Y-103833000D01*
G37*
D11*
G36*
X176882084Y-94820142D02*
G01*
X176820153Y-94822870D01*
X176760673Y-94831024D01*
X176705298Y-94844131D01*
X176652593Y-94862296D01*
X176603770Y-94884926D01*
X176557827Y-94912320D01*
X176515466Y-94943986D01*
X176476220Y-94980217D01*
X176440341Y-95020852D01*
X176407866Y-95065951D01*
X176353405Y-95170196D01*
X176314168Y-95294060D01*
X176292145Y-95438794D01*
X176288219Y-95538473D01*
X176290927Y-95625876D01*
X176298937Y-95707657D01*
X176311586Y-95781480D01*
X176328895Y-95850040D01*
X176349985Y-95911497D01*
X176375174Y-95968013D01*
X176403543Y-96018353D01*
X176435546Y-96064004D01*
X176470472Y-96104363D01*
X176508671Y-96140183D01*
X176594173Y-96198100D01*
X176692512Y-96238372D01*
X176804680Y-96260512D01*
X176882084Y-96264497D01*
X176989601Y-96254197D01*
X177091921Y-96223856D01*
X177188631Y-96173967D01*
X177277765Y-96105375D01*
X177307457Y-96076344D01*
X177136914Y-95862546D01*
X177049740Y-95925594D01*
X177007360Y-95947297D01*
X176963142Y-95961251D01*
X176911490Y-95966582D01*
X176877545Y-95963810D01*
X176846420Y-95955351D01*
X176820455Y-95942447D01*
X176796920Y-95924437D01*
X176757511Y-95872854D01*
X176726629Y-95793911D01*
X176706060Y-95676681D01*
X176699830Y-95538473D01*
X176702547Y-95443769D01*
X176710623Y-95361538D01*
X176722251Y-95298456D01*
X176737970Y-95244733D01*
X176755395Y-95204469D01*
X176775962Y-95171273D01*
X176797399Y-95147017D01*
X176821357Y-95128340D01*
X176874338Y-95107594D01*
X176909524Y-95104380D01*
X176978902Y-95114600D01*
X177047088Y-95145368D01*
X177113406Y-95192771D01*
X177293694Y-94978973D01*
X177245919Y-94939316D01*
X177194822Y-94904629D01*
X177144572Y-94877400D01*
X177091159Y-94855071D01*
X177037233Y-94838664D01*
X176980155Y-94827266D01*
X176882084Y-94820142D01*
G37*
G36*
X178197270Y-95181231D02*
G01*
X177815067Y-95181231D01*
X177673931Y-95993338D01*
X177566135Y-95181231D01*
X177174186Y-95181231D01*
X177434830Y-96226200D01*
X177572033Y-96226200D01*
X177552736Y-96267298D01*
X177529666Y-96302210D01*
X177505458Y-96328578D01*
X177477402Y-96350880D01*
X177407747Y-96385032D01*
X177306024Y-96409620D01*
X177258389Y-96416318D01*
X177299592Y-96673115D01*
X177375666Y-96667618D01*
X177447088Y-96656808D01*
X177510334Y-96641689D01*
X177569376Y-96621807D01*
X177621896Y-96598327D01*
X177670534Y-96570480D01*
X177714083Y-96539213D01*
X177753928Y-96503808D01*
X177821944Y-96421313D01*
X177875755Y-96321168D01*
X177909100Y-96224319D01*
X178197270Y-95181231D01*
G37*
G36*
X178609992Y-95267998D02*
G01*
X178638530Y-95233507D01*
X178668455Y-95206918D01*
X178702150Y-95184431D01*
X178777856Y-95153435D01*
X178858924Y-95142934D01*
X178929979Y-95150098D01*
X179002570Y-95176354D01*
X179035341Y-95197080D01*
X179065160Y-95222652D01*
X179093540Y-95254961D01*
X179118614Y-95292552D01*
X179142057Y-95339154D01*
X179161627Y-95391757D01*
X179178589Y-95455986D01*
X179190937Y-95527121D01*
X179199153Y-95612460D01*
X179201890Y-95705681D01*
X179200897Y-95753356D01*
X179184971Y-95893378D01*
X179152404Y-96009687D01*
X179106629Y-96102391D01*
X179050240Y-96172941D01*
X178984522Y-96223090D01*
X178909364Y-96253811D01*
X178867717Y-96261793D01*
X178823619Y-96264497D01*
X178777737Y-96261187D01*
X178738527Y-96252622D01*
X178701949Y-96239050D01*
X178667493Y-96220304D01*
X178636178Y-96196918D01*
X178607496Y-96168383D01*
X178582551Y-96135585D01*
X178568874Y-96226200D01*
X178229755Y-96226200D01*
X178229755Y-95507100D01*
X178609992Y-95507100D01*
X178609992Y-95922728D01*
X178628165Y-95952177D01*
X178664217Y-95984235D01*
X178684431Y-95992254D01*
X178706077Y-95994963D01*
X178715935Y-95994508D01*
X178751652Y-95981987D01*
X178767687Y-95967200D01*
X178781746Y-95945553D01*
X178795175Y-95911169D01*
X178805487Y-95865222D01*
X178813178Y-95795512D01*
X178815840Y-95706194D01*
X178809084Y-95561090D01*
X178791332Y-95475397D01*
X178779983Y-95450422D01*
X178767089Y-95433293D01*
X178744439Y-95418982D01*
X178719755Y-95415374D01*
X178700990Y-95418065D01*
X178679193Y-95427717D01*
X178657165Y-95444551D01*
X178633273Y-95471330D01*
X178609992Y-95507100D01*
X178229755Y-95507100D01*
X178229755Y-94765432D01*
X178609992Y-94727135D01*
X178609992Y-95267998D01*
G37*
G36*
X179814285Y-95146845D02*
G01*
X179914786Y-95168766D01*
X180001348Y-95208531D01*
X180074646Y-95265561D01*
X180106469Y-95300814D01*
X180134736Y-95340454D01*
X180159715Y-95385328D01*
X180180677Y-95434714D01*
X180197860Y-95490146D01*
X180210447Y-95550298D01*
X180218425Y-95617254D01*
X180221128Y-95689183D01*
X180213263Y-95810742D01*
X179642907Y-95810742D01*
X179660177Y-95894698D01*
X179687854Y-95948188D01*
X179706842Y-95967252D01*
X179728654Y-95980748D01*
X179768761Y-95992716D01*
X179815416Y-95995988D01*
X179841120Y-95994735D01*
X179880961Y-95987644D01*
X179920683Y-95974294D01*
X179974980Y-95946828D01*
X180032975Y-95908281D01*
X180185822Y-96111650D01*
X180100855Y-96175360D01*
X180003164Y-96224164D01*
X179897414Y-96254203D01*
X179784043Y-96264497D01*
X179691427Y-96258857D01*
X179583156Y-96234733D01*
X179535385Y-96216070D01*
X179491597Y-96193215D01*
X179451243Y-96165951D01*
X179414908Y-96134744D01*
X179381521Y-96098518D01*
X179352352Y-96058474D01*
X179326191Y-96012483D01*
X179304599Y-95962732D01*
X179286635Y-95906103D01*
X179273702Y-95845788D01*
X179265417Y-95778041D01*
X179262670Y-95706793D01*
X179269231Y-95598463D01*
X179269532Y-95597030D01*
X179640941Y-95597030D01*
X179848755Y-95597030D01*
X179848755Y-95581557D01*
X179848527Y-95557602D01*
X179840574Y-95470154D01*
X179822942Y-95420644D01*
X179795409Y-95392726D01*
X179775214Y-95384814D01*
X179750704Y-95382121D01*
X179719242Y-95386343D01*
X179701829Y-95394393D01*
X179686700Y-95407484D01*
X179671821Y-95430111D01*
X179659811Y-95461756D01*
X179648144Y-95519219D01*
X179640941Y-95597030D01*
X179269532Y-95597030D01*
X179294219Y-95479358D01*
X179335315Y-95378720D01*
X179390391Y-95296312D01*
X179458360Y-95231415D01*
X179539296Y-95183644D01*
X179585009Y-95166283D01*
X179634252Y-95153558D01*
X179687752Y-95145629D01*
X179744891Y-95142934D01*
X179814285Y-95146845D01*
G37*
G36*
X180914582Y-95148405D02*
G01*
X180880213Y-95151097D01*
X180847753Y-95158998D01*
X180788132Y-95189931D01*
X180735154Y-95241840D01*
X180690133Y-95316740D01*
X180673514Y-95357757D01*
X180646073Y-95181231D01*
X180312853Y-95181231D01*
X180312853Y-96226200D01*
X180693090Y-96226200D01*
X180693090Y-95731156D01*
X180714735Y-95644978D01*
X180729405Y-95607433D01*
X180747891Y-95574977D01*
X180767532Y-95551956D01*
X180791276Y-95534125D01*
X180815393Y-95523460D01*
X180843351Y-95517532D01*
X180863633Y-95516418D01*
X180930314Y-95525406D01*
X180947921Y-95530095D01*
X181008615Y-95164818D01*
X180963843Y-95152668D01*
X180914582Y-95148405D01*
G37*
G36*
X181421764Y-95142934D02*
G01*
X181359287Y-95145619D01*
X181301609Y-95153476D01*
X181249718Y-95165924D01*
X181202548Y-95182780D01*
X181160810Y-95203381D01*
X181123730Y-95227701D01*
X181091653Y-95255176D01*
X181064229Y-95285769D01*
X181023490Y-95355337D01*
X181001777Y-95435372D01*
X180998357Y-95485472D01*
X181001101Y-95532845D01*
X181009365Y-95576452D01*
X181022090Y-95613924D01*
X181039700Y-95648491D01*
X181088914Y-95708864D01*
X181161089Y-95762081D01*
X181270798Y-95812880D01*
X181373316Y-95852544D01*
X181426388Y-95884603D01*
X181438704Y-95899803D01*
X181445094Y-95916415D01*
X181447239Y-95939568D01*
X181444548Y-95958413D01*
X181436653Y-95974213D01*
X181407687Y-95995520D01*
X181357052Y-96003853D01*
X181287760Y-95993725D01*
X181209350Y-95961417D01*
X181123849Y-95904519D01*
X180947408Y-96099938D01*
X181030161Y-96166003D01*
X181130138Y-96217871D01*
X181185349Y-96237242D01*
X181243075Y-96251641D01*
X181302451Y-96260755D01*
X181363415Y-96264431D01*
X181372781Y-96264497D01*
X181436343Y-96261797D01*
X181496299Y-96253844D01*
X181551466Y-96241103D01*
X181602559Y-96223694D01*
X181648125Y-96202448D01*
X181689282Y-96177160D01*
X181724671Y-96149010D01*
X181755434Y-96117424D01*
X181780608Y-96083690D01*
X181800984Y-96047048D01*
X181816066Y-96008525D01*
X181826134Y-95967515D01*
X181831408Y-95906400D01*
X181828689Y-95857126D01*
X181820598Y-95812664D01*
X181808191Y-95774926D01*
X181791212Y-95740751D01*
X181744066Y-95681957D01*
X181674886Y-95630458D01*
X181573151Y-95581837D01*
X181560934Y-95577112D01*
X181448147Y-95533047D01*
X181392481Y-95501689D01*
X181379761Y-95487677D01*
X181374055Y-95473330D01*
X181372781Y-95458202D01*
X181375562Y-95441032D01*
X181384084Y-95426650D01*
X181414925Y-95409472D01*
X181449205Y-95405629D01*
X181524891Y-95415968D01*
X181608726Y-95448753D01*
X181660866Y-95479659D01*
X181794137Y-95276290D01*
X181715474Y-95219260D01*
X181616486Y-95174734D01*
X181561415Y-95159037D01*
X181503764Y-95148439D01*
X181421764Y-95142934D01*
G37*
G36*
X182211304Y-96264497D02*
G01*
X182316116Y-96255029D01*
X182409934Y-96228624D01*
X182413134Y-96227311D01*
X182348507Y-95960598D01*
X182315168Y-95966496D01*
X182297860Y-95963695D01*
X182285417Y-95955029D01*
X182276066Y-95926580D01*
X182275930Y-95921360D01*
X182275930Y-94727135D01*
X181895693Y-94765432D01*
X181895693Y-95938030D01*
X181898414Y-95991053D01*
X181906520Y-96039993D01*
X181919055Y-96082327D01*
X181936252Y-96120672D01*
X181956942Y-96153393D01*
X181981746Y-96182188D01*
X182009867Y-96206372D01*
X182041788Y-96226546D01*
X182117183Y-96254419D01*
X182211304Y-96264497D01*
G37*
G36*
X182964669Y-95148404D02*
G01*
X183067483Y-95169734D01*
X183145819Y-95204896D01*
X183205652Y-95253824D01*
X183230038Y-95284610D01*
X183250231Y-95319327D01*
X183267286Y-95360963D01*
X183279656Y-95407235D01*
X183287972Y-95463949D01*
X183290723Y-95526505D01*
X183290723Y-95904434D01*
X183292467Y-95941444D01*
X183304855Y-95983393D01*
X183320537Y-96000966D01*
X183343638Y-96014111D01*
X183267214Y-96259026D01*
X183176201Y-96245644D01*
X183103601Y-96219255D01*
X183047720Y-96178347D01*
X183023640Y-96150107D01*
X183002638Y-96116351D01*
X182962558Y-96166272D01*
X182930269Y-96195545D01*
X182895956Y-96219036D01*
X182856319Y-96238685D01*
X182815129Y-96252407D01*
X182766145Y-96261618D01*
X182716435Y-96264497D01*
X182713846Y-96264488D01*
X182668905Y-96261560D01*
X182626812Y-96253529D01*
X182587874Y-96240681D01*
X182552129Y-96223232D01*
X182519561Y-96201257D01*
X182490600Y-96175095D01*
X182465081Y-96144500D01*
X182443664Y-96110085D01*
X182426264Y-96071350D01*
X182413529Y-96029171D01*
X182405575Y-95983012D01*
X182402876Y-95933841D01*
X182405835Y-95895287D01*
X182771316Y-95895287D01*
X182771458Y-95903669D01*
X182781733Y-95957177D01*
X182804044Y-95987250D01*
X182819734Y-95995249D01*
X182837994Y-95997955D01*
X182847669Y-95997303D01*
X182868961Y-95991206D01*
X182888551Y-95979319D01*
X182906157Y-95961821D01*
X182920316Y-95939825D01*
X182920316Y-95775095D01*
X182898689Y-95775095D01*
X182853680Y-95779324D01*
X182810141Y-95797798D01*
X182794192Y-95813185D01*
X182782532Y-95832616D01*
X182774086Y-95861023D01*
X182771316Y-95895287D01*
X182405835Y-95895287D01*
X182408157Y-95865028D01*
X182431538Y-95783719D01*
X182472844Y-95715585D01*
X182500803Y-95685724D01*
X182533347Y-95659285D01*
X182572290Y-95635337D01*
X182616166Y-95615283D01*
X182668082Y-95598337D01*
X182725443Y-95585948D01*
X182792421Y-95577864D01*
X182865435Y-95575146D01*
X182920316Y-95575146D01*
X182920316Y-95549842D01*
X182917679Y-95497805D01*
X182904495Y-95450792D01*
X182892777Y-95434902D01*
X182877049Y-95423364D01*
X182842514Y-95412654D01*
X182794824Y-95409561D01*
X182704969Y-95419386D01*
X182632159Y-95436883D01*
X182553757Y-95462135D01*
X182471435Y-95225256D01*
X182573616Y-95187593D01*
X182649973Y-95167806D01*
X182727171Y-95153618D01*
X182863469Y-95142934D01*
X182964669Y-95148404D01*
G37*
G36*
X183808847Y-94727135D02*
G01*
X183428610Y-94765432D01*
X183428610Y-96226200D01*
X183808847Y-96226200D01*
X183808847Y-94727135D01*
G37*
G36*
X184426220Y-95181231D02*
G01*
X184061712Y-95181231D01*
X183816712Y-95654818D01*
X184030339Y-96226200D01*
X184436051Y-96226200D01*
X184187118Y-95639174D01*
X184426220Y-95181231D01*
G37*
G36*
X185393084Y-94868174D02*
G01*
X185520589Y-94889452D01*
X185623971Y-94925993D01*
X185706488Y-94975941D01*
X185770757Y-95038860D01*
X185796627Y-95075600D01*
X185818145Y-95115800D01*
X185835607Y-95160610D01*
X185848314Y-95209038D01*
X185856401Y-95263364D01*
X185859120Y-95321597D01*
X185857050Y-95375396D01*
X185838449Y-95482084D01*
X185802160Y-95572096D01*
X185777581Y-95611601D01*
X185748922Y-95647321D01*
X185715484Y-95679970D01*
X185678056Y-95708626D01*
X185634956Y-95734232D01*
X185587845Y-95755475D01*
X185534080Y-95773116D01*
X185476242Y-95785890D01*
X185411008Y-95794076D01*
X185341679Y-95796808D01*
X185247560Y-95796808D01*
X185247560Y-96226200D01*
X184851679Y-96226200D01*
X184851679Y-95520435D01*
X185247560Y-95520435D01*
X185300475Y-95520435D01*
X185322351Y-95519564D01*
X185377436Y-95506097D01*
X185398836Y-95493223D01*
X185416542Y-95476123D01*
X185432314Y-95451595D01*
X185443808Y-95421426D01*
X185452560Y-95375227D01*
X185455374Y-95319631D01*
X185453698Y-95279677D01*
X185440110Y-95217265D01*
X185413777Y-95175888D01*
X185394387Y-95160486D01*
X185370488Y-95149031D01*
X185337849Y-95141024D01*
X185298594Y-95138317D01*
X185247560Y-95138317D01*
X185247560Y-95520435D01*
X184851679Y-95520435D01*
X184851679Y-94863911D01*
X185294662Y-94863911D01*
X185393084Y-94868174D01*
G37*
G36*
X186433453Y-95148710D02*
G01*
X186535468Y-95172727D01*
X186622272Y-95213895D01*
X186695213Y-95271850D01*
X186726803Y-95307525D01*
X186754824Y-95347598D01*
X186779637Y-95393118D01*
X186800441Y-95443262D01*
X186817576Y-95499958D01*
X186830121Y-95561625D01*
X186838123Y-95630953D01*
X186840829Y-95705681D01*
X186835075Y-95808676D01*
X186811021Y-95927831D01*
X186770483Y-96027670D01*
X186715075Y-96109624D01*
X186681983Y-96144274D01*
X186645390Y-96174704D01*
X186604919Y-96201118D01*
X186561090Y-96223054D01*
X186512820Y-96240802D01*
X186461264Y-96253681D01*
X186404717Y-96261777D01*
X186344931Y-96264497D01*
X186255019Y-96258674D01*
X186152453Y-96234695D01*
X186065492Y-96193694D01*
X185992581Y-96136010D01*
X185961019Y-96100471D01*
X185933047Y-96060551D01*
X185908250Y-96015117D01*
X185887475Y-95965058D01*
X185870333Y-95908307D01*
X185857791Y-95846560D01*
X185849775Y-95776925D01*
X185847066Y-95701835D01*
X186237134Y-95701835D01*
X186238534Y-95777655D01*
X186250214Y-95889549D01*
X186270142Y-95948817D01*
X186298168Y-95980141D01*
X186319676Y-95989274D01*
X186344931Y-95992142D01*
X186385126Y-95982931D01*
X186402122Y-95970195D01*
X186416493Y-95951466D01*
X186430700Y-95919591D01*
X186441243Y-95877219D01*
X186449924Y-95802550D01*
X186452727Y-95705681D01*
X186451230Y-95630007D01*
X186439090Y-95518601D01*
X186418622Y-95458828D01*
X186390335Y-95427261D01*
X186369328Y-95418228D01*
X186344931Y-95415374D01*
X186305450Y-95423990D01*
X186288297Y-95436276D01*
X186273855Y-95454396D01*
X186259523Y-95485540D01*
X186248931Y-95526951D01*
X186239977Y-95602842D01*
X186237134Y-95701835D01*
X185847066Y-95701835D01*
X185852940Y-95597827D01*
X185877120Y-95478936D01*
X185917759Y-95379342D01*
X185973273Y-95297584D01*
X186006437Y-95263006D01*
X186043115Y-95232635D01*
X186083705Y-95206260D01*
X186127677Y-95184354D01*
X186176145Y-95166620D01*
X186227932Y-95153749D01*
X186284788Y-95145653D01*
X186344931Y-95142934D01*
X186433453Y-95148710D01*
G37*
G36*
X188263043Y-95181231D02*
G01*
X187904348Y-95181231D01*
X187839721Y-95938115D01*
X187741670Y-95181231D01*
X187398704Y-95181231D01*
X187285009Y-95938115D01*
X187234060Y-95181231D01*
X186861688Y-95181231D01*
X187045908Y-96226200D01*
X187475128Y-96226200D01*
X187561382Y-95520350D01*
X187651569Y-96226200D01*
X188082755Y-96226200D01*
X188263043Y-95181231D01*
G37*
G36*
X188836030Y-95146845D02*
G01*
X188936530Y-95168766D01*
X189023092Y-95208531D01*
X189096391Y-95265561D01*
X189128214Y-95300814D01*
X189156481Y-95340454D01*
X189181460Y-95385328D01*
X189202422Y-95434714D01*
X189219605Y-95490146D01*
X189232192Y-95550298D01*
X189240169Y-95617254D01*
X189242872Y-95689183D01*
X189235008Y-95810742D01*
X188664652Y-95810742D01*
X188681922Y-95894698D01*
X188709599Y-95948188D01*
X188728587Y-95967252D01*
X188750399Y-95980748D01*
X188790506Y-95992716D01*
X188837160Y-95995988D01*
X188862865Y-95994735D01*
X188902705Y-95987644D01*
X188942427Y-95974294D01*
X188996725Y-95946828D01*
X189054720Y-95908281D01*
X189207567Y-96111650D01*
X189122600Y-96175360D01*
X189024908Y-96224164D01*
X188919159Y-96254203D01*
X188805787Y-96264497D01*
X188713171Y-96258857D01*
X188604901Y-96234733D01*
X188557129Y-96216070D01*
X188513341Y-96193215D01*
X188472987Y-96165951D01*
X188436652Y-96134744D01*
X188403265Y-96098518D01*
X188374096Y-96058474D01*
X188347936Y-96012483D01*
X188326344Y-95962732D01*
X188308379Y-95906103D01*
X188295447Y-95845788D01*
X188287161Y-95778041D01*
X188284414Y-95706793D01*
X188290975Y-95598463D01*
X188291276Y-95597030D01*
X188662685Y-95597030D01*
X188870500Y-95597030D01*
X188870500Y-95581557D01*
X188870271Y-95557602D01*
X188862318Y-95470154D01*
X188844687Y-95420644D01*
X188817154Y-95392726D01*
X188796958Y-95384814D01*
X188772448Y-95382121D01*
X188740986Y-95386343D01*
X188723574Y-95394393D01*
X188708444Y-95407484D01*
X188693565Y-95430111D01*
X188681556Y-95461756D01*
X188669888Y-95519219D01*
X188662685Y-95597030D01*
X188291276Y-95597030D01*
X188315964Y-95479358D01*
X188357060Y-95378720D01*
X188412135Y-95296312D01*
X188480105Y-95231415D01*
X188561041Y-95183644D01*
X188606754Y-95166283D01*
X188655997Y-95153558D01*
X188709497Y-95145629D01*
X188766635Y-95142934D01*
X188836030Y-95146845D01*
G37*
G36*
X189936326Y-95148405D02*
G01*
X189901958Y-95151097D01*
X189869498Y-95158998D01*
X189809876Y-95189931D01*
X189756898Y-95241840D01*
X189711878Y-95316740D01*
X189695259Y-95357757D01*
X189667818Y-95181231D01*
X189334598Y-95181231D01*
X189334598Y-96226200D01*
X189714835Y-96226200D01*
X189714835Y-95731156D01*
X189736479Y-95644978D01*
X189751149Y-95607433D01*
X189769635Y-95574977D01*
X189789277Y-95551956D01*
X189813021Y-95534125D01*
X189837138Y-95523460D01*
X189865095Y-95517532D01*
X189885377Y-95516418D01*
X189952059Y-95525406D01*
X189969666Y-95530095D01*
X190030360Y-95164818D01*
X189985587Y-95152668D01*
X189936326Y-95148405D01*
G37*
G36*
X190603804Y-94866128D02*
G01*
X190740312Y-94883600D01*
X190846747Y-94915724D01*
X190929341Y-94960599D01*
X190992694Y-95018178D01*
X191018245Y-95052581D01*
X191039369Y-95090465D01*
X191056824Y-95134022D01*
X191069459Y-95181433D01*
X191077715Y-95236833D01*
X191080458Y-95296721D01*
X191074967Y-95374191D01*
X191051961Y-95462771D01*
X191011338Y-95539296D01*
X190984008Y-95573714D01*
X190951491Y-95605793D01*
X190913057Y-95635694D01*
X190868797Y-95662853D01*
X191166712Y-96226200D01*
X190741339Y-96226200D01*
X190519847Y-95739277D01*
X190466932Y-95739277D01*
X190466932Y-96226200D01*
X190071051Y-96226200D01*
X190071051Y-95472735D01*
X190466932Y-95472735D01*
X190533610Y-95472735D01*
X190544875Y-95472510D01*
X190602273Y-95461569D01*
X190642062Y-95434809D01*
X190657781Y-95412953D01*
X190669272Y-95385911D01*
X190677855Y-95345426D01*
X190680644Y-95296721D01*
X190680240Y-95280323D01*
X190668224Y-95217230D01*
X190641206Y-95174053D01*
X190620662Y-95157658D01*
X190595940Y-95145736D01*
X190561671Y-95137247D01*
X190521813Y-95134471D01*
X190466932Y-95134471D01*
X190466932Y-95472735D01*
X190071051Y-95472735D01*
X190071051Y-94863911D01*
X190525745Y-94863911D01*
X190603804Y-94866128D01*
G37*
G36*
X192251431Y-96226200D02*
G01*
X191843753Y-96226200D01*
X191798617Y-95958119D01*
X191524296Y-95958119D01*
X191479160Y-96226200D01*
X191077380Y-96226200D01*
X191217848Y-95683797D01*
X191569346Y-95683797D01*
X191751600Y-95683797D01*
X191659533Y-95140284D01*
X191569346Y-95683797D01*
X191217848Y-95683797D01*
X191430177Y-94863911D01*
X191900601Y-94863911D01*
X192251431Y-96226200D01*
G37*
G36*
X193516353Y-94863911D02*
G01*
X193028319Y-94863911D01*
X192920522Y-95750646D01*
X192799048Y-94863911D01*
X192314861Y-94863911D01*
X192228692Y-96226200D01*
X192606963Y-96226200D01*
X192610896Y-95736883D01*
X192609884Y-95552714D01*
X192602440Y-95368190D01*
X192591234Y-95193199D01*
X192728437Y-96087372D01*
X193100810Y-96087372D01*
X193228268Y-95193199D01*
X193217630Y-95530358D01*
X193218437Y-95737140D01*
X193220404Y-96226200D01*
X193602607Y-96226200D01*
X193516353Y-94863911D01*
G37*
G36*
X194760672Y-94895540D02*
G01*
X194421639Y-94895540D01*
X193986520Y-95175760D01*
X194153130Y-95418794D01*
X194392232Y-95256116D01*
X194392232Y-96226200D01*
X194760672Y-96226200D01*
X194760672Y-94895540D01*
G37*
G36*
X195424986Y-94863949D02*
G01*
X195530386Y-94875201D01*
X195621895Y-94905374D01*
X195663201Y-94927445D01*
X195701530Y-94954134D01*
X195737547Y-94986115D01*
X195770366Y-95022837D01*
X195801057Y-95066019D01*
X195828184Y-95114248D01*
X195852820Y-95170391D01*
X195873390Y-95232025D01*
X195890640Y-95303068D01*
X195903209Y-95380130D01*
X195911315Y-95467939D01*
X195914036Y-95562323D01*
X195913557Y-95603485D01*
X195899846Y-95772473D01*
X195869778Y-95909859D01*
X195826117Y-96020051D01*
X195770553Y-96107052D01*
X195703478Y-96174031D01*
X195665201Y-96200759D01*
X195623927Y-96222833D01*
X195578386Y-96240677D01*
X195529770Y-96253572D01*
X195475586Y-96261763D01*
X195418137Y-96264497D01*
X195407263Y-96264404D01*
X195301058Y-96252573D01*
X195209332Y-96222084D01*
X195168104Y-96199981D01*
X195129849Y-96173281D01*
X195094008Y-96141391D01*
X195061344Y-96104758D01*
X195030845Y-96061717D01*
X195003879Y-96013588D01*
X194979388Y-95957494D01*
X194958928Y-95895800D01*
X194941744Y-95824466D01*
X194929216Y-95746899D01*
X194921113Y-95658079D01*
X194918392Y-95562323D01*
X195306408Y-95562323D01*
X195309504Y-95742641D01*
X195321903Y-95876131D01*
X195340830Y-95941534D01*
X195366863Y-95974549D01*
X195390102Y-95985134D01*
X195418137Y-95988209D01*
X195422332Y-95988160D01*
X195461282Y-95979913D01*
X195476931Y-95968867D01*
X195490096Y-95951937D01*
X195503669Y-95919964D01*
X195513813Y-95874641D01*
X195524771Y-95750449D01*
X195527900Y-95562323D01*
X195525224Y-95387635D01*
X195513483Y-95251141D01*
X195495178Y-95185207D01*
X195469753Y-95152151D01*
X195446473Y-95141414D01*
X195418137Y-95138317D01*
X195410929Y-95138494D01*
X195373165Y-95148535D01*
X195357272Y-95161347D01*
X195343908Y-95180466D01*
X195330119Y-95215837D01*
X195319869Y-95264976D01*
X195309459Y-95386209D01*
X195306408Y-95562323D01*
X194918392Y-95562323D01*
X194918872Y-95521318D01*
X194932582Y-95353378D01*
X194962648Y-95216940D01*
X195006346Y-95107492D01*
X195062057Y-95020992D01*
X195129481Y-94954287D01*
X195168070Y-94927610D01*
X195209686Y-94905585D01*
X195255739Y-94887741D01*
X195304912Y-94874850D01*
X195359863Y-94866646D01*
X195418137Y-94863911D01*
X195424986Y-94863949D01*
G37*
G36*
X197279060Y-94863911D02*
G01*
X196791026Y-94863911D01*
X196683230Y-95750646D01*
X196561756Y-94863911D01*
X196077569Y-94863911D01*
X195991400Y-96226200D01*
X196369671Y-96226200D01*
X196373603Y-95736883D01*
X196372592Y-95552714D01*
X196365147Y-95368190D01*
X196353942Y-95193199D01*
X196491145Y-96087372D01*
X196863518Y-96087372D01*
X196990976Y-95193199D01*
X196980337Y-95530358D01*
X196981145Y-95737140D01*
X196983111Y-96226200D01*
X197365315Y-96226200D01*
X197279060Y-94863911D01*
G37*
G36*
X197902721Y-94864581D02*
G01*
X198060066Y-94878042D01*
X198180962Y-94905869D01*
X198272279Y-94945140D01*
X198339807Y-94994419D01*
X198387667Y-95054111D01*
X198404954Y-95088727D01*
X198417579Y-95126569D01*
X198425610Y-95169350D01*
X198428321Y-95215767D01*
X198424105Y-95269270D01*
X198414693Y-95309008D01*
X198400496Y-95344821D01*
X198380263Y-95379465D01*
X198355708Y-95409803D01*
X198323540Y-95439196D01*
X198287727Y-95463538D01*
X198243376Y-95485604D01*
X198197084Y-95501714D01*
X198252707Y-95517363D01*
X198333880Y-95553717D01*
X198395586Y-95600740D01*
X198440374Y-95659372D01*
X198456698Y-95693756D01*
X198468902Y-95732343D01*
X198476606Y-95775734D01*
X198479270Y-95823907D01*
X198479179Y-95834043D01*
X198467413Y-95931894D01*
X198454528Y-95974430D01*
X198437236Y-96013079D01*
X198414969Y-96049054D01*
X198388435Y-96081193D01*
X198355373Y-96111663D01*
X198317897Y-96138067D01*
X198271181Y-96162977D01*
X198219681Y-96183331D01*
X198154976Y-96201469D01*
X198085011Y-96214339D01*
X197995891Y-96223349D01*
X197901135Y-96226200D01*
X197454219Y-96226200D01*
X197454219Y-95945980D01*
X197850100Y-95945980D01*
X197904981Y-95945980D01*
X197935658Y-95944819D01*
X197996895Y-95931907D01*
X198038167Y-95905850D01*
X198053494Y-95886777D01*
X198064957Y-95863253D01*
X198072835Y-95831928D01*
X198075524Y-95794415D01*
X198075134Y-95779014D01*
X198063496Y-95719776D01*
X198036914Y-95678815D01*
X198016559Y-95663190D01*
X197991567Y-95651634D01*
X197957383Y-95643521D01*
X197916778Y-95640798D01*
X197850100Y-95640798D01*
X197850100Y-95945980D01*
X197454219Y-95945980D01*
X197454219Y-95389985D01*
X197850100Y-95389985D01*
X197893270Y-95389985D01*
X197944240Y-95385320D01*
X197989211Y-95366557D01*
X198005864Y-95350576D01*
X198017823Y-95330542D01*
X198027524Y-95296281D01*
X198030473Y-95254492D01*
X198024157Y-95208133D01*
X198002471Y-95170494D01*
X197984481Y-95155926D01*
X197961288Y-95144893D01*
X197929027Y-95137141D01*
X197889338Y-95134471D01*
X197850100Y-95134471D01*
X197850100Y-95389985D01*
X197454219Y-95389985D01*
X197454219Y-94863911D01*
X197854032Y-94863911D01*
X197902721Y-94864581D01*
G37*
D12*
X159755906Y-111224392D02*
X159803526Y-111272011D01*
X159803526Y-111272011D02*
X159851145Y-111414868D01*
X159851145Y-111414868D02*
X159851145Y-111510106D01*
X159851145Y-111510106D02*
X159803526Y-111652963D01*
X159803526Y-111652963D02*
X159708287Y-111748201D01*
X159708287Y-111748201D02*
X159613049Y-111795820D01*
X159613049Y-111795820D02*
X159422573Y-111843439D01*
X159422573Y-111843439D02*
X159279716Y-111843439D01*
X159279716Y-111843439D02*
X159089240Y-111795820D01*
X159089240Y-111795820D02*
X158994002Y-111748201D01*
X158994002Y-111748201D02*
X158898764Y-111652963D01*
X158898764Y-111652963D02*
X158851145Y-111510106D01*
X158851145Y-111510106D02*
X158851145Y-111414868D01*
X158851145Y-111414868D02*
X158898764Y-111272011D01*
X158898764Y-111272011D02*
X158946383Y-111224392D01*
X158851145Y-110891058D02*
X158851145Y-110224392D01*
X158851145Y-110224392D02*
X159851145Y-110652963D01*
X182833801Y-114620298D02*
X182881421Y-114667917D01*
X182881421Y-114667917D02*
X182929040Y-114810774D01*
X182929040Y-114810774D02*
X182929040Y-114906012D01*
X182929040Y-114906012D02*
X182881421Y-115048869D01*
X182881421Y-115048869D02*
X182786182Y-115144107D01*
X182786182Y-115144107D02*
X182690944Y-115191726D01*
X182690944Y-115191726D02*
X182500468Y-115239345D01*
X182500468Y-115239345D02*
X182357611Y-115239345D01*
X182357611Y-115239345D02*
X182167135Y-115191726D01*
X182167135Y-115191726D02*
X182071897Y-115144107D01*
X182071897Y-115144107D02*
X181976659Y-115048869D01*
X181976659Y-115048869D02*
X181929040Y-114906012D01*
X181929040Y-114906012D02*
X181929040Y-114810774D01*
X181929040Y-114810774D02*
X181976659Y-114667917D01*
X181976659Y-114667917D02*
X182024278Y-114620298D01*
X181929040Y-113763155D02*
X181929040Y-113953631D01*
X181929040Y-113953631D02*
X181976659Y-114048869D01*
X181976659Y-114048869D02*
X182024278Y-114096488D01*
X182024278Y-114096488D02*
X182167135Y-114191726D01*
X182167135Y-114191726D02*
X182357611Y-114239345D01*
X182357611Y-114239345D02*
X182738563Y-114239345D01*
X182738563Y-114239345D02*
X182833801Y-114191726D01*
X182833801Y-114191726D02*
X182881421Y-114144107D01*
X182881421Y-114144107D02*
X182929040Y-114048869D01*
X182929040Y-114048869D02*
X182929040Y-113858393D01*
X182929040Y-113858393D02*
X182881421Y-113763155D01*
X182881421Y-113763155D02*
X182833801Y-113715536D01*
X182833801Y-113715536D02*
X182738563Y-113667917D01*
X182738563Y-113667917D02*
X182500468Y-113667917D01*
X182500468Y-113667917D02*
X182405230Y-113715536D01*
X182405230Y-113715536D02*
X182357611Y-113763155D01*
X182357611Y-113763155D02*
X182309992Y-113858393D01*
X182309992Y-113858393D02*
X182309992Y-114048869D01*
X182309992Y-114048869D02*
X182357611Y-114144107D01*
X182357611Y-114144107D02*
X182405230Y-114191726D01*
X182405230Y-114191726D02*
X182500468Y-114239345D01*
X106529219Y-129233304D02*
X107338742Y-129233304D01*
X107338742Y-129233304D02*
X107433980Y-129185685D01*
X107433980Y-129185685D02*
X107481600Y-129138066D01*
X107481600Y-129138066D02*
X107529219Y-129042828D01*
X107529219Y-129042828D02*
X107529219Y-128852352D01*
X107529219Y-128852352D02*
X107481600Y-128757114D01*
X107481600Y-128757114D02*
X107433980Y-128709495D01*
X107433980Y-128709495D02*
X107338742Y-128661876D01*
X107338742Y-128661876D02*
X106529219Y-128661876D01*
X106529219Y-127709495D02*
X106529219Y-128185685D01*
X106529219Y-128185685D02*
X107005409Y-128233304D01*
X107005409Y-128233304D02*
X106957790Y-128185685D01*
X106957790Y-128185685D02*
X106910171Y-128090447D01*
X106910171Y-128090447D02*
X106910171Y-127852352D01*
X106910171Y-127852352D02*
X106957790Y-127757114D01*
X106957790Y-127757114D02*
X107005409Y-127709495D01*
X107005409Y-127709495D02*
X107100647Y-127661876D01*
X107100647Y-127661876D02*
X107338742Y-127661876D01*
X107338742Y-127661876D02*
X107433980Y-127709495D01*
X107433980Y-127709495D02*
X107481600Y-127757114D01*
X107481600Y-127757114D02*
X107529219Y-127852352D01*
X107529219Y-127852352D02*
X107529219Y-128090447D01*
X107529219Y-128090447D02*
X107481600Y-128185685D01*
X107481600Y-128185685D02*
X107433980Y-128233304D01*
X134369301Y-122169380D02*
X134321682Y-122217000D01*
X134321682Y-122217000D02*
X134178825Y-122264619D01*
X134178825Y-122264619D02*
X134083587Y-122264619D01*
X134083587Y-122264619D02*
X133940730Y-122217000D01*
X133940730Y-122217000D02*
X133845492Y-122121761D01*
X133845492Y-122121761D02*
X133797873Y-122026523D01*
X133797873Y-122026523D02*
X133750254Y-121836047D01*
X133750254Y-121836047D02*
X133750254Y-121693190D01*
X133750254Y-121693190D02*
X133797873Y-121502714D01*
X133797873Y-121502714D02*
X133845492Y-121407476D01*
X133845492Y-121407476D02*
X133940730Y-121312238D01*
X133940730Y-121312238D02*
X134083587Y-121264619D01*
X134083587Y-121264619D02*
X134178825Y-121264619D01*
X134178825Y-121264619D02*
X134321682Y-121312238D01*
X134321682Y-121312238D02*
X134369301Y-121359857D01*
X135321682Y-122264619D02*
X134750254Y-122264619D01*
X135035968Y-122264619D02*
X135035968Y-121264619D01*
X135035968Y-121264619D02*
X134940730Y-121407476D01*
X134940730Y-121407476D02*
X134845492Y-121502714D01*
X134845492Y-121502714D02*
X134750254Y-121550333D01*
X156990585Y-96967286D02*
X156942966Y-97014906D01*
X156942966Y-97014906D02*
X156800109Y-97062525D01*
X156800109Y-97062525D02*
X156704871Y-97062525D01*
X156704871Y-97062525D02*
X156562014Y-97014906D01*
X156562014Y-97014906D02*
X156466776Y-96919667D01*
X156466776Y-96919667D02*
X156419157Y-96824429D01*
X156419157Y-96824429D02*
X156371538Y-96633953D01*
X156371538Y-96633953D02*
X156371538Y-96491096D01*
X156371538Y-96491096D02*
X156419157Y-96300620D01*
X156419157Y-96300620D02*
X156466776Y-96205382D01*
X156466776Y-96205382D02*
X156562014Y-96110144D01*
X156562014Y-96110144D02*
X156704871Y-96062525D01*
X156704871Y-96062525D02*
X156800109Y-96062525D01*
X156800109Y-96062525D02*
X156942966Y-96110144D01*
X156942966Y-96110144D02*
X156990585Y-96157763D01*
X157847728Y-96395858D02*
X157847728Y-97062525D01*
X157609633Y-96014906D02*
X157371538Y-96729191D01*
X157371538Y-96729191D02*
X157990585Y-96729191D01*
X201765895Y-108088019D02*
X201765895Y-108897542D01*
X201765895Y-108897542D02*
X201813514Y-108992780D01*
X201813514Y-108992780D02*
X201861133Y-109040400D01*
X201861133Y-109040400D02*
X201956371Y-109088019D01*
X201956371Y-109088019D02*
X202146847Y-109088019D01*
X202146847Y-109088019D02*
X202242085Y-109040400D01*
X202242085Y-109040400D02*
X202289704Y-108992780D01*
X202289704Y-108992780D02*
X202337323Y-108897542D01*
X202337323Y-108897542D02*
X202337323Y-108088019D01*
X203242085Y-108088019D02*
X203051609Y-108088019D01*
X203051609Y-108088019D02*
X202956371Y-108135638D01*
X202956371Y-108135638D02*
X202908752Y-108183257D01*
X202908752Y-108183257D02*
X202813514Y-108326114D01*
X202813514Y-108326114D02*
X202765895Y-108516590D01*
X202765895Y-108516590D02*
X202765895Y-108897542D01*
X202765895Y-108897542D02*
X202813514Y-108992780D01*
X202813514Y-108992780D02*
X202861133Y-109040400D01*
X202861133Y-109040400D02*
X202956371Y-109088019D01*
X202956371Y-109088019D02*
X203146847Y-109088019D01*
X203146847Y-109088019D02*
X203242085Y-109040400D01*
X203242085Y-109040400D02*
X203289704Y-108992780D01*
X203289704Y-108992780D02*
X203337323Y-108897542D01*
X203337323Y-108897542D02*
X203337323Y-108659447D01*
X203337323Y-108659447D02*
X203289704Y-108564209D01*
X203289704Y-108564209D02*
X203242085Y-108516590D01*
X203242085Y-108516590D02*
X203146847Y-108468971D01*
X203146847Y-108468971D02*
X202956371Y-108468971D01*
X202956371Y-108468971D02*
X202861133Y-108516590D01*
X202861133Y-108516590D02*
X202813514Y-108564209D01*
X202813514Y-108564209D02*
X202765895Y-108659447D01*
X203151295Y-93655619D02*
X203151295Y-94465142D01*
X203151295Y-94465142D02*
X203198914Y-94560380D01*
X203198914Y-94560380D02*
X203246533Y-94608000D01*
X203246533Y-94608000D02*
X203341771Y-94655619D01*
X203341771Y-94655619D02*
X203532247Y-94655619D01*
X203532247Y-94655619D02*
X203627485Y-94608000D01*
X203627485Y-94608000D02*
X203675104Y-94560380D01*
X203675104Y-94560380D02*
X203722723Y-94465142D01*
X203722723Y-94465142D02*
X203722723Y-93655619D01*
X204151295Y-93750857D02*
X204198914Y-93703238D01*
X204198914Y-93703238D02*
X204294152Y-93655619D01*
X204294152Y-93655619D02*
X204532247Y-93655619D01*
X204532247Y-93655619D02*
X204627485Y-93703238D01*
X204627485Y-93703238D02*
X204675104Y-93750857D01*
X204675104Y-93750857D02*
X204722723Y-93846095D01*
X204722723Y-93846095D02*
X204722723Y-93941333D01*
X204722723Y-93941333D02*
X204675104Y-94084190D01*
X204675104Y-94084190D02*
X204103676Y-94655619D01*
X204103676Y-94655619D02*
X204722723Y-94655619D01*
X106773619Y-112536504D02*
X107583142Y-112536504D01*
X107583142Y-112536504D02*
X107678380Y-112488885D01*
X107678380Y-112488885D02*
X107726000Y-112441266D01*
X107726000Y-112441266D02*
X107773619Y-112346028D01*
X107773619Y-112346028D02*
X107773619Y-112155552D01*
X107773619Y-112155552D02*
X107726000Y-112060314D01*
X107726000Y-112060314D02*
X107678380Y-112012695D01*
X107678380Y-112012695D02*
X107583142Y-111965076D01*
X107583142Y-111965076D02*
X106773619Y-111965076D01*
X107773619Y-111441266D02*
X107773619Y-111250790D01*
X107773619Y-111250790D02*
X107726000Y-111155552D01*
X107726000Y-111155552D02*
X107678380Y-111107933D01*
X107678380Y-111107933D02*
X107535523Y-111012695D01*
X107535523Y-111012695D02*
X107345047Y-110965076D01*
X107345047Y-110965076D02*
X106964095Y-110965076D01*
X106964095Y-110965076D02*
X106868857Y-111012695D01*
X106868857Y-111012695D02*
X106821238Y-111060314D01*
X106821238Y-111060314D02*
X106773619Y-111155552D01*
X106773619Y-111155552D02*
X106773619Y-111346028D01*
X106773619Y-111346028D02*
X106821238Y-111441266D01*
X106821238Y-111441266D02*
X106868857Y-111488885D01*
X106868857Y-111488885D02*
X106964095Y-111536504D01*
X106964095Y-111536504D02*
X107202190Y-111536504D01*
X107202190Y-111536504D02*
X107297428Y-111488885D01*
X107297428Y-111488885D02*
X107345047Y-111441266D01*
X107345047Y-111441266D02*
X107392666Y-111346028D01*
X107392666Y-111346028D02*
X107392666Y-111155552D01*
X107392666Y-111155552D02*
X107345047Y-111060314D01*
X107345047Y-111060314D02*
X107297428Y-111012695D01*
X107297428Y-111012695D02*
X107202190Y-110965076D01*
X156185295Y-90739819D02*
X156185295Y-91549342D01*
X156185295Y-91549342D02*
X156232914Y-91644580D01*
X156232914Y-91644580D02*
X156280533Y-91692200D01*
X156280533Y-91692200D02*
X156375771Y-91739819D01*
X156375771Y-91739819D02*
X156566247Y-91739819D01*
X156566247Y-91739819D02*
X156661485Y-91692200D01*
X156661485Y-91692200D02*
X156709104Y-91644580D01*
X156709104Y-91644580D02*
X156756723Y-91549342D01*
X156756723Y-91549342D02*
X156756723Y-90739819D01*
X157661485Y-91073152D02*
X157661485Y-91739819D01*
X157423390Y-90692200D02*
X157185295Y-91406485D01*
X157185295Y-91406485D02*
X157804342Y-91406485D01*
X159410101Y-97027696D02*
X159362482Y-97075316D01*
X159362482Y-97075316D02*
X159219625Y-97122935D01*
X159219625Y-97122935D02*
X159124387Y-97122935D01*
X159124387Y-97122935D02*
X158981530Y-97075316D01*
X158981530Y-97075316D02*
X158886292Y-96980077D01*
X158886292Y-96980077D02*
X158838673Y-96884839D01*
X158838673Y-96884839D02*
X158791054Y-96694363D01*
X158791054Y-96694363D02*
X158791054Y-96551506D01*
X158791054Y-96551506D02*
X158838673Y-96361030D01*
X158838673Y-96361030D02*
X158886292Y-96265792D01*
X158886292Y-96265792D02*
X158981530Y-96170554D01*
X158981530Y-96170554D02*
X159124387Y-96122935D01*
X159124387Y-96122935D02*
X159219625Y-96122935D01*
X159219625Y-96122935D02*
X159362482Y-96170554D01*
X159362482Y-96170554D02*
X159410101Y-96218173D01*
X159743435Y-96122935D02*
X160362482Y-96122935D01*
X160362482Y-96122935D02*
X160029149Y-96503887D01*
X160029149Y-96503887D02*
X160172006Y-96503887D01*
X160172006Y-96503887D02*
X160267244Y-96551506D01*
X160267244Y-96551506D02*
X160314863Y-96599125D01*
X160314863Y-96599125D02*
X160362482Y-96694363D01*
X160362482Y-96694363D02*
X160362482Y-96932458D01*
X160362482Y-96932458D02*
X160314863Y-97027696D01*
X160314863Y-97027696D02*
X160267244Y-97075316D01*
X160267244Y-97075316D02*
X160172006Y-97122935D01*
X160172006Y-97122935D02*
X159886292Y-97122935D01*
X159886292Y-97122935D02*
X159791054Y-97075316D01*
X159791054Y-97075316D02*
X159743435Y-97027696D01*
X107537707Y-121785687D02*
X107585327Y-121833306D01*
X107585327Y-121833306D02*
X107632946Y-121976163D01*
X107632946Y-121976163D02*
X107632946Y-122071401D01*
X107632946Y-122071401D02*
X107585327Y-122214258D01*
X107585327Y-122214258D02*
X107490088Y-122309496D01*
X107490088Y-122309496D02*
X107394850Y-122357115D01*
X107394850Y-122357115D02*
X107204374Y-122404734D01*
X107204374Y-122404734D02*
X107061517Y-122404734D01*
X107061517Y-122404734D02*
X106871041Y-122357115D01*
X106871041Y-122357115D02*
X106775803Y-122309496D01*
X106775803Y-122309496D02*
X106680565Y-122214258D01*
X106680565Y-122214258D02*
X106632946Y-122071401D01*
X106632946Y-122071401D02*
X106632946Y-121976163D01*
X106632946Y-121976163D02*
X106680565Y-121833306D01*
X106680565Y-121833306D02*
X106728184Y-121785687D01*
X106632946Y-120880925D02*
X106632946Y-121357115D01*
X106632946Y-121357115D02*
X107109136Y-121404734D01*
X107109136Y-121404734D02*
X107061517Y-121357115D01*
X107061517Y-121357115D02*
X107013898Y-121261877D01*
X107013898Y-121261877D02*
X107013898Y-121023782D01*
X107013898Y-121023782D02*
X107061517Y-120928544D01*
X107061517Y-120928544D02*
X107109136Y-120880925D01*
X107109136Y-120880925D02*
X107204374Y-120833306D01*
X107204374Y-120833306D02*
X107442469Y-120833306D01*
X107442469Y-120833306D02*
X107537707Y-120880925D01*
X107537707Y-120880925D02*
X107585327Y-120928544D01*
X107585327Y-120928544D02*
X107632946Y-121023782D01*
X107632946Y-121023782D02*
X107632946Y-121261877D01*
X107632946Y-121261877D02*
X107585327Y-121357115D01*
X107585327Y-121357115D02*
X107537707Y-121404734D01*
X182778148Y-84608550D02*
X182825768Y-84656169D01*
X182825768Y-84656169D02*
X182873387Y-84799026D01*
X182873387Y-84799026D02*
X182873387Y-84894264D01*
X182873387Y-84894264D02*
X182825768Y-85037121D01*
X182825768Y-85037121D02*
X182730529Y-85132359D01*
X182730529Y-85132359D02*
X182635291Y-85179978D01*
X182635291Y-85179978D02*
X182444815Y-85227597D01*
X182444815Y-85227597D02*
X182301958Y-85227597D01*
X182301958Y-85227597D02*
X182111482Y-85179978D01*
X182111482Y-85179978D02*
X182016244Y-85132359D01*
X182016244Y-85132359D02*
X181921006Y-85037121D01*
X181921006Y-85037121D02*
X181873387Y-84894264D01*
X181873387Y-84894264D02*
X181873387Y-84799026D01*
X181873387Y-84799026D02*
X181921006Y-84656169D01*
X181921006Y-84656169D02*
X181968625Y-84608550D01*
X181968625Y-84227597D02*
X181921006Y-84179978D01*
X181921006Y-84179978D02*
X181873387Y-84084740D01*
X181873387Y-84084740D02*
X181873387Y-83846645D01*
X181873387Y-83846645D02*
X181921006Y-83751407D01*
X181921006Y-83751407D02*
X181968625Y-83703788D01*
X181968625Y-83703788D02*
X182063863Y-83656169D01*
X182063863Y-83656169D02*
X182159101Y-83656169D01*
X182159101Y-83656169D02*
X182301958Y-83703788D01*
X182301958Y-83703788D02*
X182873387Y-84275216D01*
X182873387Y-84275216D02*
X182873387Y-83656169D01*
X153634695Y-120975219D02*
X153634695Y-121784742D01*
X153634695Y-121784742D02*
X153682314Y-121879980D01*
X153682314Y-121879980D02*
X153729933Y-121927600D01*
X153729933Y-121927600D02*
X153825171Y-121975219D01*
X153825171Y-121975219D02*
X154015647Y-121975219D01*
X154015647Y-121975219D02*
X154110885Y-121927600D01*
X154110885Y-121927600D02*
X154158504Y-121879980D01*
X154158504Y-121879980D02*
X154206123Y-121784742D01*
X154206123Y-121784742D02*
X154206123Y-120975219D01*
X154825171Y-121403790D02*
X154729933Y-121356171D01*
X154729933Y-121356171D02*
X154682314Y-121308552D01*
X154682314Y-121308552D02*
X154634695Y-121213314D01*
X154634695Y-121213314D02*
X154634695Y-121165695D01*
X154634695Y-121165695D02*
X154682314Y-121070457D01*
X154682314Y-121070457D02*
X154729933Y-121022838D01*
X154729933Y-121022838D02*
X154825171Y-120975219D01*
X154825171Y-120975219D02*
X155015647Y-120975219D01*
X155015647Y-120975219D02*
X155110885Y-121022838D01*
X155110885Y-121022838D02*
X155158504Y-121070457D01*
X155158504Y-121070457D02*
X155206123Y-121165695D01*
X155206123Y-121165695D02*
X155206123Y-121213314D01*
X155206123Y-121213314D02*
X155158504Y-121308552D01*
X155158504Y-121308552D02*
X155110885Y-121356171D01*
X155110885Y-121356171D02*
X155015647Y-121403790D01*
X155015647Y-121403790D02*
X154825171Y-121403790D01*
X154825171Y-121403790D02*
X154729933Y-121451409D01*
X154729933Y-121451409D02*
X154682314Y-121499028D01*
X154682314Y-121499028D02*
X154634695Y-121594266D01*
X154634695Y-121594266D02*
X154634695Y-121784742D01*
X154634695Y-121784742D02*
X154682314Y-121879980D01*
X154682314Y-121879980D02*
X154729933Y-121927600D01*
X154729933Y-121927600D02*
X154825171Y-121975219D01*
X154825171Y-121975219D02*
X155015647Y-121975219D01*
X155015647Y-121975219D02*
X155110885Y-121927600D01*
X155110885Y-121927600D02*
X155158504Y-121879980D01*
X155158504Y-121879980D02*
X155206123Y-121784742D01*
X155206123Y-121784742D02*
X155206123Y-121594266D01*
X155206123Y-121594266D02*
X155158504Y-121499028D01*
X155158504Y-121499028D02*
X155110885Y-121451409D01*
X155110885Y-121451409D02*
X155015647Y-121403790D01*
X157072866Y-102218219D02*
X157072866Y-102932504D01*
X157072866Y-102932504D02*
X157025247Y-103075361D01*
X157025247Y-103075361D02*
X156930009Y-103170600D01*
X156930009Y-103170600D02*
X156787152Y-103218219D01*
X156787152Y-103218219D02*
X156691914Y-103218219D01*
X158072866Y-103218219D02*
X157501438Y-103218219D01*
X157787152Y-103218219D02*
X157787152Y-102218219D01*
X157787152Y-102218219D02*
X157691914Y-102361076D01*
X157691914Y-102361076D02*
X157596676Y-102456314D01*
X157596676Y-102456314D02*
X157501438Y-102503933D01*
X147842890Y-122354517D02*
X147795271Y-122402137D01*
X147795271Y-122402137D02*
X147652414Y-122449756D01*
X147652414Y-122449756D02*
X147557176Y-122449756D01*
X147557176Y-122449756D02*
X147414319Y-122402137D01*
X147414319Y-122402137D02*
X147319081Y-122306898D01*
X147319081Y-122306898D02*
X147271462Y-122211660D01*
X147271462Y-122211660D02*
X147223843Y-122021184D01*
X147223843Y-122021184D02*
X147223843Y-121878327D01*
X147223843Y-121878327D02*
X147271462Y-121687851D01*
X147271462Y-121687851D02*
X147319081Y-121592613D01*
X147319081Y-121592613D02*
X147414319Y-121497375D01*
X147414319Y-121497375D02*
X147557176Y-121449756D01*
X147557176Y-121449756D02*
X147652414Y-121449756D01*
X147652414Y-121449756D02*
X147795271Y-121497375D01*
X147795271Y-121497375D02*
X147842890Y-121544994D01*
X148414319Y-121878327D02*
X148319081Y-121830708D01*
X148319081Y-121830708D02*
X148271462Y-121783089D01*
X148271462Y-121783089D02*
X148223843Y-121687851D01*
X148223843Y-121687851D02*
X148223843Y-121640232D01*
X148223843Y-121640232D02*
X148271462Y-121544994D01*
X148271462Y-121544994D02*
X148319081Y-121497375D01*
X148319081Y-121497375D02*
X148414319Y-121449756D01*
X148414319Y-121449756D02*
X148604795Y-121449756D01*
X148604795Y-121449756D02*
X148700033Y-121497375D01*
X148700033Y-121497375D02*
X148747652Y-121544994D01*
X148747652Y-121544994D02*
X148795271Y-121640232D01*
X148795271Y-121640232D02*
X148795271Y-121687851D01*
X148795271Y-121687851D02*
X148747652Y-121783089D01*
X148747652Y-121783089D02*
X148700033Y-121830708D01*
X148700033Y-121830708D02*
X148604795Y-121878327D01*
X148604795Y-121878327D02*
X148414319Y-121878327D01*
X148414319Y-121878327D02*
X148319081Y-121925946D01*
X148319081Y-121925946D02*
X148271462Y-121973565D01*
X148271462Y-121973565D02*
X148223843Y-122068803D01*
X148223843Y-122068803D02*
X148223843Y-122259279D01*
X148223843Y-122259279D02*
X148271462Y-122354517D01*
X148271462Y-122354517D02*
X148319081Y-122402137D01*
X148319081Y-122402137D02*
X148414319Y-122449756D01*
X148414319Y-122449756D02*
X148604795Y-122449756D01*
X148604795Y-122449756D02*
X148700033Y-122402137D01*
X148700033Y-122402137D02*
X148747652Y-122354517D01*
X148747652Y-122354517D02*
X148795271Y-122259279D01*
X148795271Y-122259279D02*
X148795271Y-122068803D01*
X148795271Y-122068803D02*
X148747652Y-121973565D01*
X148747652Y-121973565D02*
X148700033Y-121925946D01*
X148700033Y-121925946D02*
X148604795Y-121878327D01*
X141009095Y-121031819D02*
X141009095Y-121841342D01*
X141009095Y-121841342D02*
X141056714Y-121936580D01*
X141056714Y-121936580D02*
X141104333Y-121984200D01*
X141104333Y-121984200D02*
X141199571Y-122031819D01*
X141199571Y-122031819D02*
X141390047Y-122031819D01*
X141390047Y-122031819D02*
X141485285Y-121984200D01*
X141485285Y-121984200D02*
X141532904Y-121936580D01*
X141532904Y-121936580D02*
X141580523Y-121841342D01*
X141580523Y-121841342D02*
X141580523Y-121031819D01*
X142580523Y-122031819D02*
X142009095Y-122031819D01*
X142294809Y-122031819D02*
X142294809Y-121031819D01*
X142294809Y-121031819D02*
X142199571Y-121174676D01*
X142199571Y-121174676D02*
X142104333Y-121269914D01*
X142104333Y-121269914D02*
X142009095Y-121317533D01*
X179791495Y-93158219D02*
X179791495Y-93967742D01*
X179791495Y-93967742D02*
X179839114Y-94062980D01*
X179839114Y-94062980D02*
X179886733Y-94110600D01*
X179886733Y-94110600D02*
X179981971Y-94158219D01*
X179981971Y-94158219D02*
X180172447Y-94158219D01*
X180172447Y-94158219D02*
X180267685Y-94110600D01*
X180267685Y-94110600D02*
X180315304Y-94062980D01*
X180315304Y-94062980D02*
X180362923Y-93967742D01*
X180362923Y-93967742D02*
X180362923Y-93158219D01*
X180743876Y-93158219D02*
X181362923Y-93158219D01*
X181362923Y-93158219D02*
X181029590Y-93539171D01*
X181029590Y-93539171D02*
X181172447Y-93539171D01*
X181172447Y-93539171D02*
X181267685Y-93586790D01*
X181267685Y-93586790D02*
X181315304Y-93634409D01*
X181315304Y-93634409D02*
X181362923Y-93729647D01*
X181362923Y-93729647D02*
X181362923Y-93967742D01*
X181362923Y-93967742D02*
X181315304Y-94062980D01*
X181315304Y-94062980D02*
X181267685Y-94110600D01*
X181267685Y-94110600D02*
X181172447Y-94158219D01*
X181172447Y-94158219D02*
X180886733Y-94158219D01*
X180886733Y-94158219D02*
X180791495Y-94110600D01*
X180791495Y-94110600D02*
X180743876Y-94062980D01*
X107704538Y-105071329D02*
X107752158Y-105118948D01*
X107752158Y-105118948D02*
X107799777Y-105261805D01*
X107799777Y-105261805D02*
X107799777Y-105357043D01*
X107799777Y-105357043D02*
X107752158Y-105499900D01*
X107752158Y-105499900D02*
X107656919Y-105595138D01*
X107656919Y-105595138D02*
X107561681Y-105642757D01*
X107561681Y-105642757D02*
X107371205Y-105690376D01*
X107371205Y-105690376D02*
X107228348Y-105690376D01*
X107228348Y-105690376D02*
X107037872Y-105642757D01*
X107037872Y-105642757D02*
X106942634Y-105595138D01*
X106942634Y-105595138D02*
X106847396Y-105499900D01*
X106847396Y-105499900D02*
X106799777Y-105357043D01*
X106799777Y-105357043D02*
X106799777Y-105261805D01*
X106799777Y-105261805D02*
X106847396Y-105118948D01*
X106847396Y-105118948D02*
X106895015Y-105071329D01*
X107799777Y-104595138D02*
X107799777Y-104404662D01*
X107799777Y-104404662D02*
X107752158Y-104309424D01*
X107752158Y-104309424D02*
X107704538Y-104261805D01*
X107704538Y-104261805D02*
X107561681Y-104166567D01*
X107561681Y-104166567D02*
X107371205Y-104118948D01*
X107371205Y-104118948D02*
X106990253Y-104118948D01*
X106990253Y-104118948D02*
X106895015Y-104166567D01*
X106895015Y-104166567D02*
X106847396Y-104214186D01*
X106847396Y-104214186D02*
X106799777Y-104309424D01*
X106799777Y-104309424D02*
X106799777Y-104499900D01*
X106799777Y-104499900D02*
X106847396Y-104595138D01*
X106847396Y-104595138D02*
X106895015Y-104642757D01*
X106895015Y-104642757D02*
X106990253Y-104690376D01*
X106990253Y-104690376D02*
X107228348Y-104690376D01*
X107228348Y-104690376D02*
X107323586Y-104642757D01*
X107323586Y-104642757D02*
X107371205Y-104595138D01*
X107371205Y-104595138D02*
X107418824Y-104499900D01*
X107418824Y-104499900D02*
X107418824Y-104309424D01*
X107418824Y-104309424D02*
X107371205Y-104214186D01*
X107371205Y-104214186D02*
X107323586Y-104166567D01*
X107323586Y-104166567D02*
X107228348Y-104118948D01*
X179830495Y-108282019D02*
X179830495Y-109091542D01*
X179830495Y-109091542D02*
X179878114Y-109186780D01*
X179878114Y-109186780D02*
X179925733Y-109234400D01*
X179925733Y-109234400D02*
X180020971Y-109282019D01*
X180020971Y-109282019D02*
X180211447Y-109282019D01*
X180211447Y-109282019D02*
X180306685Y-109234400D01*
X180306685Y-109234400D02*
X180354304Y-109186780D01*
X180354304Y-109186780D02*
X180401923Y-109091542D01*
X180401923Y-109091542D02*
X180401923Y-108282019D01*
X180782876Y-108282019D02*
X181449542Y-108282019D01*
X181449542Y-108282019D02*
X181020971Y-109282019D01*
D13*
%TO.C,C7*%
X158605126Y-108235178D02*
X158605126Y-107712674D01*
X160075126Y-108235178D02*
X160075126Y-107712674D01*
%TO.C,C6*%
X182042421Y-111163180D02*
X182042421Y-111685684D01*
X183512421Y-111163180D02*
X183512421Y-111685684D01*
%TO.C,U5*%
X108322000Y-127785000D02*
X108322000Y-116585000D01*
X108322000Y-127785000D02*
X108522000Y-127785000D01*
X129122000Y-129785000D02*
X129122000Y-116585000D01*
X108629946Y-128735324D02*
X108299946Y-128975324D01*
X108299946Y-128495324D01*
X108629946Y-128735324D01*
G36*
X108629946Y-128735324D02*
G01*
X108299946Y-128975324D01*
X108299946Y-128495324D01*
X108629946Y-128735324D01*
G37*
%TO.C,C1*%
X131226716Y-120976800D02*
X131749220Y-120976800D01*
X131226716Y-122446800D02*
X131749220Y-122446800D01*
%TO.C,C4*%
X156348694Y-93972106D02*
X156348694Y-94494610D01*
X157818694Y-93972106D02*
X157818694Y-94494610D01*
%TO.C,U6*%
X183887000Y-120927000D02*
X183887000Y-109727000D01*
X183887000Y-120927000D02*
X184087000Y-120927000D01*
X204687000Y-122927000D02*
X204687000Y-109727000D01*
X184194946Y-121877324D02*
X183864946Y-122117324D01*
X183864946Y-121637324D01*
X184194946Y-121877324D01*
G36*
X184194946Y-121877324D02*
G01*
X183864946Y-122117324D01*
X183864946Y-121637324D01*
X184194946Y-121877324D01*
G37*
%TO.C,U2*%
X183887000Y-90701000D02*
X183887000Y-79501000D01*
X183887000Y-90701000D02*
X184087000Y-90701000D01*
X204687000Y-92701000D02*
X204687000Y-79501000D01*
X184194946Y-91651324D02*
X183864946Y-91891324D01*
X183864946Y-91411324D01*
X184194946Y-91651324D01*
G36*
X184194946Y-91651324D02*
G01*
X183864946Y-91891324D01*
X183864946Y-91411324D01*
X184194946Y-91651324D01*
G37*
%TO.C,U9*%
X108322000Y-111021000D02*
X108322000Y-99821000D01*
X108322000Y-111021000D02*
X108522000Y-111021000D01*
X129122000Y-113021000D02*
X129122000Y-99821000D01*
X108629946Y-111971324D02*
X108299946Y-112211324D01*
X108299946Y-111731324D01*
X108629946Y-111971324D01*
G36*
X108629946Y-111971324D02*
G01*
X108299946Y-112211324D01*
X108299946Y-111731324D01*
X108629946Y-111971324D01*
G37*
%TO.C,U4*%
X139437000Y-88300000D02*
X139437000Y-77100000D01*
X139437000Y-88300000D02*
X139637000Y-88300000D01*
X160237000Y-90300000D02*
X160237000Y-77100000D01*
X139744946Y-89250324D02*
X139414946Y-89490324D01*
X139414946Y-89010324D01*
X139744946Y-89250324D01*
G36*
X139744946Y-89250324D02*
G01*
X139414946Y-89490324D01*
X139414946Y-89010324D01*
X139744946Y-89250324D01*
G37*
%TO.C,C3*%
X158828884Y-94015916D02*
X158828884Y-94538420D01*
X160298884Y-94015916D02*
X160298884Y-94538420D01*
%TO.C,C5*%
X106490327Y-118157369D02*
X106490327Y-118679873D01*
X107960327Y-118157369D02*
X107960327Y-118679873D01*
%TO.C,C2*%
X181781568Y-81005632D02*
X181781568Y-81528136D01*
X183251568Y-81005632D02*
X183251568Y-81528136D01*
%TO.C,U8*%
X154310000Y-120504000D02*
X143110000Y-120504000D01*
X154310000Y-120504000D02*
X154310000Y-120304000D01*
X156310000Y-99704000D02*
X143110000Y-99704000D01*
X155500324Y-120526054D02*
X155020324Y-120526054D01*
X155260324Y-120196054D01*
X155500324Y-120526054D01*
G36*
X155500324Y-120526054D02*
G01*
X155020324Y-120526054D01*
X155260324Y-120196054D01*
X155500324Y-120526054D01*
G37*
%TO.C,J1*%
X158219000Y-97912000D02*
X158219000Y-99182000D01*
%TO.C,C8*%
X144678305Y-121149937D02*
X145200809Y-121149937D01*
X144678305Y-122619937D02*
X145200809Y-122619937D01*
%TO.C,U1*%
X140594000Y-120504000D02*
X129394000Y-120504000D01*
X140594000Y-120504000D02*
X140594000Y-120304000D01*
X142594000Y-99704000D02*
X129394000Y-99704000D01*
X141784324Y-120526054D02*
X141304324Y-120526054D01*
X141544324Y-120196054D01*
X141784324Y-120526054D01*
G36*
X141784324Y-120526054D02*
G01*
X141304324Y-120526054D01*
X141544324Y-120196054D01*
X141784324Y-120526054D01*
G37*
%TO.C,U3*%
X160646000Y-90701000D02*
X160646000Y-79501000D01*
X160646000Y-90701000D02*
X160846000Y-90701000D01*
X181446000Y-92701000D02*
X181446000Y-79501000D01*
X160953946Y-91651324D02*
X160623946Y-91891324D01*
X160623946Y-91411324D01*
X160953946Y-91651324D01*
G36*
X160953946Y-91651324D02*
G01*
X160623946Y-91891324D01*
X160623946Y-91411324D01*
X160953946Y-91651324D01*
G37*
%TO.C,C9*%
X106453958Y-101341411D02*
X106453958Y-101863915D01*
X107923958Y-101341411D02*
X107923958Y-101863915D01*
%TO.C,U7*%
X160646000Y-120927000D02*
X160646000Y-109727000D01*
X160646000Y-120927000D02*
X160846000Y-120927000D01*
X181446000Y-122927000D02*
X181446000Y-109727000D01*
X160953946Y-121877324D02*
X160623946Y-122117324D01*
X160623946Y-121637324D01*
X160953946Y-121877324D01*
G36*
X160953946Y-121877324D02*
G01*
X160623946Y-122117324D01*
X160623946Y-121637324D01*
X160953946Y-121877324D01*
G37*
D14*
%TO.C,G\u002A\u002A\u002A*%
G36*
X200450641Y-95118756D02*
G01*
X200500864Y-95157068D01*
X200537501Y-95213450D01*
X200557615Y-95281788D01*
X200558268Y-95355970D01*
X200541117Y-95419558D01*
X200503195Y-95483209D01*
X200451163Y-95521388D01*
X200412439Y-95533631D01*
X200376490Y-95536505D01*
X200344537Y-95524188D01*
X200307946Y-95495566D01*
X200253733Y-95433089D01*
X200220677Y-95362943D01*
X200211677Y-95292935D01*
X200218716Y-95255181D01*
X200246939Y-95201895D01*
X200290508Y-95153826D01*
X200340530Y-95118801D01*
X200388112Y-95104648D01*
X200389770Y-95104627D01*
X200450641Y-95118756D01*
G37*
G36*
X201294144Y-95150492D02*
G01*
X201311763Y-95161406D01*
X201347901Y-95200431D01*
X201379615Y-95258121D01*
X201401090Y-95321912D01*
X201406991Y-95367219D01*
X201395255Y-95436603D01*
X201362909Y-95496076D01*
X201315703Y-95541386D01*
X201259386Y-95568282D01*
X201199708Y-95572516D01*
X201151851Y-95555837D01*
X201120335Y-95523241D01*
X201092528Y-95469379D01*
X201072385Y-95404244D01*
X201063860Y-95337830D01*
X201063801Y-95333342D01*
X201066293Y-95285310D01*
X201078307Y-95250523D01*
X201105845Y-95215374D01*
X201124142Y-95196573D01*
X201183046Y-95150874D01*
X201239021Y-95135644D01*
X201294144Y-95150492D01*
G37*
G36*
X201369445Y-95752205D02*
G01*
X201408312Y-95775070D01*
X201430406Y-95813302D01*
X201430020Y-95855506D01*
X201425931Y-95864993D01*
X201401319Y-95890901D01*
X201354781Y-95924008D01*
X201293586Y-95960330D01*
X201224999Y-95995882D01*
X201156288Y-96026676D01*
X201094718Y-96048728D01*
X201086904Y-96050939D01*
X201000002Y-96067914D01*
X200893685Y-96078790D01*
X200778926Y-96083304D01*
X200666699Y-96081195D01*
X200567979Y-96072200D01*
X200524196Y-96064397D01*
X200401967Y-96030680D01*
X200306943Y-95990454D01*
X200240726Y-95944443D01*
X200226851Y-95929778D01*
X200194925Y-95878867D01*
X200192310Y-95834515D01*
X200218804Y-95792976D01*
X200219396Y-95792381D01*
X200254571Y-95766565D01*
X200288270Y-95766265D01*
X200327679Y-95792271D01*
X200342324Y-95805941D01*
X200401675Y-95845701D01*
X200487289Y-95876587D01*
X200595194Y-95897668D01*
X200721417Y-95908016D01*
X200782104Y-95908927D01*
X200925952Y-95901544D01*
X201048739Y-95879504D01*
X201157898Y-95841006D01*
X201238353Y-95798400D01*
X201297858Y-95765727D01*
X201340440Y-95751395D01*
X201369445Y-95752205D01*
G37*
G36*
X200881739Y-93872682D02*
G01*
X200926672Y-93880423D01*
X200983906Y-93895209D01*
X201051682Y-93914721D01*
X201154156Y-93946502D01*
X201234507Y-93977211D01*
X201301325Y-94011606D01*
X201363198Y-94054448D01*
X201428718Y-94110497D01*
X201463269Y-94142808D01*
X201530315Y-94202632D01*
X201587712Y-94241428D01*
X201645190Y-94262700D01*
X201712477Y-94269953D01*
X201799301Y-94266690D01*
X201805839Y-94266199D01*
X201924870Y-94266055D01*
X202050472Y-94281239D01*
X202169194Y-94309586D01*
X202241310Y-94336240D01*
X202340355Y-94395757D01*
X202420213Y-94478349D01*
X202482081Y-94585455D01*
X202510545Y-94660470D01*
X202534578Y-94742180D01*
X202548219Y-94811532D01*
X202552738Y-94881029D01*
X202549410Y-94963175D01*
X202545769Y-95006734D01*
X202525411Y-95135494D01*
X202486873Y-95283491D01*
X202431693Y-95445705D01*
X202361409Y-95617115D01*
X202352769Y-95636435D01*
X202296548Y-95775878D01*
X202262920Y-95896985D01*
X202251899Y-96003039D01*
X202263498Y-96097323D01*
X202297731Y-96183122D01*
X202354612Y-96263719D01*
X202355371Y-96264597D01*
X202425243Y-96355895D01*
X202467675Y-96439284D01*
X202483682Y-96519808D01*
X202474277Y-96602509D01*
X202441086Y-96691150D01*
X202387009Y-96778371D01*
X202310957Y-96865650D01*
X202221180Y-96945060D01*
X202125929Y-97008673D01*
X202092884Y-97025711D01*
X202035937Y-97055710D01*
X201985787Y-97087493D01*
X201954675Y-97112900D01*
X201916040Y-97145210D01*
X201885486Y-97149286D01*
X201864454Y-97132719D01*
X201840966Y-97085988D01*
X201837792Y-97026299D01*
X201853073Y-96952874D01*
X201871997Y-96898286D01*
X201893481Y-96852296D01*
X201907188Y-96831827D01*
X201930342Y-96803240D01*
X201963740Y-96758522D01*
X201999629Y-96708097D01*
X202041958Y-96641592D01*
X202062248Y-96590016D01*
X202059292Y-96546491D01*
X202031885Y-96504140D01*
X201978820Y-96456086D01*
X201951710Y-96434925D01*
X201897167Y-96389995D01*
X201849259Y-96344680D01*
X201816211Y-96306936D01*
X201810350Y-96298155D01*
X201786612Y-96264514D01*
X201766379Y-96246584D01*
X201762759Y-96245673D01*
X201741176Y-96253580D01*
X201703468Y-96273904D01*
X201673927Y-96292008D01*
X201581668Y-96344875D01*
X201474705Y-96396229D01*
X201365700Y-96440521D01*
X201267314Y-96472205D01*
X201256014Y-96475096D01*
X201171886Y-96490158D01*
X201066766Y-96498491D01*
X200946227Y-96500566D01*
X200804751Y-96495574D01*
X200681591Y-96480098D01*
X200565856Y-96451552D01*
X200446655Y-96407354D01*
X200333962Y-96355295D01*
X200268748Y-96323934D01*
X200212932Y-96298548D01*
X200172957Y-96281976D01*
X200156070Y-96276935D01*
X200144615Y-96287980D01*
X200145751Y-96323503D01*
X200147747Y-96335550D01*
X200167003Y-96443027D01*
X200180932Y-96524806D01*
X200189937Y-96585917D01*
X200194422Y-96631395D01*
X200194789Y-96666272D01*
X200191443Y-96695581D01*
X200184786Y-96724353D01*
X200180201Y-96740597D01*
X200150377Y-96808857D01*
X200107581Y-96862332D01*
X200057742Y-96894966D01*
X200022036Y-96902165D01*
X199960351Y-96915985D01*
X199896524Y-96954276D01*
X199859888Y-96988135D01*
X199806007Y-97034724D01*
X199750883Y-97063048D01*
X199702642Y-97069122D01*
X199696995Y-97067994D01*
X199666750Y-97047831D01*
X199628266Y-97002755D01*
X199584627Y-96936993D01*
X199538920Y-96854769D01*
X199533532Y-96844173D01*
X199509997Y-96783432D01*
X199502355Y-96721010D01*
X199511105Y-96650126D01*
X199536751Y-96563999D01*
X199558449Y-96507152D01*
X199586687Y-96433557D01*
X199604093Y-96376138D01*
X199613215Y-96322818D01*
X199616602Y-96261520D01*
X199616930Y-96230042D01*
X199614638Y-96150885D01*
X199604540Y-96089455D01*
X199582647Y-96038089D01*
X199544967Y-95989125D01*
X199487511Y-95934901D01*
X199444351Y-95898679D01*
X199352943Y-95811899D01*
X199285454Y-95718721D01*
X199238448Y-95612549D01*
X199208486Y-95486787D01*
X199207775Y-95481709D01*
X199908029Y-95481709D01*
X199920542Y-95639089D01*
X199961353Y-95784180D01*
X200030223Y-95916197D01*
X200126918Y-96034357D01*
X200148078Y-96054860D01*
X200278653Y-96156449D01*
X200429086Y-96237774D01*
X200594492Y-96297673D01*
X200769984Y-96334985D01*
X200950674Y-96348550D01*
X201131677Y-96337206D01*
X201247002Y-96315968D01*
X201383502Y-96272556D01*
X201524066Y-96207367D01*
X201641169Y-96136684D01*
X201700156Y-96092591D01*
X201738840Y-96051960D01*
X201765565Y-96005738D01*
X201768900Y-95998135D01*
X201792988Y-95948900D01*
X201827810Y-95886449D01*
X201866347Y-95823296D01*
X201871172Y-95815827D01*
X201914415Y-95747512D01*
X201963226Y-95667547D01*
X202008041Y-95591638D01*
X202013947Y-95581365D01*
X202048112Y-95520010D01*
X202069184Y-95474800D01*
X202080264Y-95435146D01*
X202084455Y-95390453D01*
X202084911Y-95339089D01*
X202070089Y-95184344D01*
X202026952Y-95042636D01*
X201955064Y-94912860D01*
X201880830Y-94821423D01*
X201795189Y-94740278D01*
X201709546Y-94682763D01*
X201614247Y-94642771D01*
X201584197Y-94633793D01*
X201529386Y-94617048D01*
X201486196Y-94601019D01*
X201463964Y-94589170D01*
X201463949Y-94589156D01*
X201439683Y-94586970D01*
X201392404Y-94605913D01*
X201363611Y-94621337D01*
X201296251Y-94655500D01*
X201208549Y-94694523D01*
X201110192Y-94734571D01*
X201010866Y-94771809D01*
X200920257Y-94802399D01*
X200868073Y-94817576D01*
X200819933Y-94829292D01*
X200748967Y-94845375D01*
X200663012Y-94864104D01*
X200569904Y-94883758D01*
X200519777Y-94894075D01*
X200407057Y-94918147D01*
X200318942Y-94940497D01*
X200249123Y-94964060D01*
X200191293Y-94991771D01*
X200139143Y-95026564D01*
X200086365Y-95071372D01*
X200037372Y-95118461D01*
X199989716Y-95167220D01*
X199959601Y-95204304D01*
X199941518Y-95239162D01*
X199929960Y-95281239D01*
X199924049Y-95312825D01*
X199908029Y-95481709D01*
X199207775Y-95481709D01*
X199200694Y-95431142D01*
X199192602Y-95335735D01*
X199194854Y-95255851D01*
X199209363Y-95180636D01*
X199238042Y-95099238D01*
X199272909Y-95021454D01*
X199345281Y-94885846D01*
X199431535Y-94757400D01*
X199537092Y-94628614D01*
X199623450Y-94536208D01*
X199691056Y-94469821D01*
X199770264Y-94396705D01*
X199856198Y-94320913D01*
X199943983Y-94246498D01*
X200028741Y-94177511D01*
X200105596Y-94118006D01*
X200169672Y-94072036D01*
X200216092Y-94043651D01*
X200216215Y-94043589D01*
X200325857Y-93994533D01*
X200449741Y-93949608D01*
X200575730Y-93912652D01*
X200691683Y-93887500D01*
X200726468Y-93882343D01*
X200791063Y-93874581D01*
X200839678Y-93871047D01*
X200881739Y-93872682D01*
G37*
%TD*%
%LPC*%
D15*
%TO.C,C7*%
X159340126Y-109011426D03*
X159340126Y-106936426D03*
%TD*%
D16*
%TO.C,C6*%
X182777421Y-110386932D03*
X182777421Y-112461932D03*
%TD*%
D17*
%TO.C,U5*%
X109197000Y-128785000D03*
X110467000Y-128785000D03*
X111737000Y-128785000D03*
X113007000Y-128785000D03*
X114277000Y-128785000D03*
X115547000Y-128785000D03*
X116817000Y-128785000D03*
X118097000Y-128785000D03*
X119347000Y-128785000D03*
X120627000Y-128785000D03*
X121897000Y-128785000D03*
X123167000Y-128785000D03*
X125707000Y-128785000D03*
X125707000Y-117585000D03*
X126977000Y-117585000D03*
X128247000Y-128785000D03*
X126977000Y-128785000D03*
X128247000Y-117585000D03*
X123167000Y-117585000D03*
X124437000Y-128785000D03*
X124437000Y-117585000D03*
X121897000Y-117585000D03*
X120627000Y-117585000D03*
X119347000Y-117585000D03*
X118097000Y-117585000D03*
X116817000Y-117585000D03*
X115547000Y-117585000D03*
X114277000Y-117585000D03*
X113007000Y-117585000D03*
X111737000Y-117585000D03*
X110467000Y-117585000D03*
X109197000Y-117585000D03*
%TD*%
D18*
%TO.C,C1*%
X130450468Y-121711800D03*
X132525468Y-121711800D03*
%TD*%
D16*
%TO.C,C4*%
X157083694Y-93195858D03*
X157083694Y-95270858D03*
%TD*%
D17*
%TO.C,U6*%
X198732000Y-121927000D03*
X197462000Y-121927000D03*
X196192000Y-121927000D03*
X194912000Y-121927000D03*
X193662000Y-121927000D03*
X192382000Y-121927000D03*
X191112000Y-121927000D03*
X189842000Y-121927000D03*
X188572000Y-121927000D03*
X187302000Y-121927000D03*
X186032000Y-121927000D03*
X184762000Y-121927000D03*
X200002000Y-121927000D03*
X201272000Y-121927000D03*
X202542000Y-121927000D03*
X203812000Y-121927000D03*
X203812000Y-110727000D03*
X202542000Y-110727000D03*
X201272000Y-110727000D03*
X200002000Y-110727000D03*
X198732000Y-110727000D03*
X197462000Y-110727000D03*
X186032000Y-110727000D03*
X194912000Y-110727000D03*
X187302000Y-110727000D03*
X189842000Y-110727000D03*
X191112000Y-110727000D03*
X192382000Y-110727000D03*
X188572000Y-110727000D03*
X193662000Y-110727000D03*
X196192000Y-110727000D03*
X184762000Y-110727000D03*
%TD*%
%TO.C,U2*%
X198732000Y-91701000D03*
X197462000Y-91701000D03*
X196192000Y-91701000D03*
X194912000Y-91701000D03*
X193662000Y-91701000D03*
X192382000Y-91701000D03*
X191112000Y-91701000D03*
X189842000Y-91701000D03*
X188572000Y-91701000D03*
X187302000Y-91701000D03*
X186032000Y-91701000D03*
X184762000Y-91701000D03*
X200002000Y-91701000D03*
X201272000Y-91701000D03*
X202542000Y-91701000D03*
X203812000Y-91701000D03*
X203812000Y-80501000D03*
X202542000Y-80501000D03*
X201272000Y-80501000D03*
X200002000Y-80501000D03*
X198732000Y-80501000D03*
X197462000Y-80501000D03*
X186032000Y-80501000D03*
X194912000Y-80501000D03*
X187302000Y-80501000D03*
X189842000Y-80501000D03*
X191112000Y-80501000D03*
X192382000Y-80501000D03*
X188572000Y-80501000D03*
X193662000Y-80501000D03*
X196192000Y-80501000D03*
X184762000Y-80501000D03*
%TD*%
%TO.C,U9*%
X109197000Y-112021000D03*
X110467000Y-112021000D03*
X111737000Y-112021000D03*
X113007000Y-112021000D03*
X114277000Y-112021000D03*
X115547000Y-112021000D03*
X116817000Y-112021000D03*
X118097000Y-112021000D03*
X119347000Y-112021000D03*
X120627000Y-112021000D03*
X121897000Y-112021000D03*
X123167000Y-112021000D03*
X125707000Y-112021000D03*
X125707000Y-100821000D03*
X126977000Y-100821000D03*
X128247000Y-112021000D03*
X126977000Y-112021000D03*
X128247000Y-100821000D03*
X123167000Y-100821000D03*
X124437000Y-112021000D03*
X124437000Y-100821000D03*
X121897000Y-100821000D03*
X120627000Y-100821000D03*
X119347000Y-100821000D03*
X118097000Y-100821000D03*
X116817000Y-100821000D03*
X115547000Y-100821000D03*
X114277000Y-100821000D03*
X113007000Y-100821000D03*
X111737000Y-100821000D03*
X110467000Y-100821000D03*
X109197000Y-100821000D03*
%TD*%
%TO.C,U4*%
X154282000Y-89300000D03*
X153012000Y-89300000D03*
X151742000Y-89300000D03*
X150462000Y-89300000D03*
X149212000Y-89300000D03*
X147932000Y-89300000D03*
X146662000Y-89300000D03*
X145392000Y-89300000D03*
X144122000Y-89300000D03*
X142852000Y-89300000D03*
X141582000Y-89300000D03*
X140312000Y-89300000D03*
X155552000Y-78100000D03*
X155552000Y-89300000D03*
X156822000Y-89300000D03*
X159362000Y-89300000D03*
X154282000Y-78100000D03*
X156822000Y-78100000D03*
X158092000Y-78100000D03*
X158092000Y-89300000D03*
X159362000Y-78100000D03*
X153012000Y-78100000D03*
X141582000Y-78100000D03*
X150462000Y-78100000D03*
X142852000Y-78100000D03*
X145392000Y-78100000D03*
X146662000Y-78100000D03*
X147932000Y-78100000D03*
X144122000Y-78100000D03*
X149212000Y-78100000D03*
X151742000Y-78100000D03*
X140312000Y-78100000D03*
%TD*%
D16*
%TO.C,C3*%
X159563884Y-93239668D03*
X159563884Y-95314668D03*
%TD*%
%TO.C,C5*%
X107225327Y-117381121D03*
X107225327Y-119456121D03*
%TD*%
%TO.C,C2*%
X182516568Y-80229384D03*
X182516568Y-82304384D03*
%TD*%
D19*
%TO.C,U8*%
X155310000Y-119629000D03*
X155310000Y-118359000D03*
X155310000Y-117089000D03*
X155310000Y-115819000D03*
X155310000Y-114549000D03*
X155310000Y-113279000D03*
X155310000Y-112009000D03*
X155310000Y-110729000D03*
X155310000Y-109479000D03*
X155310000Y-108199000D03*
X155310000Y-106929000D03*
X155310000Y-105659000D03*
X144110000Y-101849000D03*
X155310000Y-101849000D03*
X144110000Y-103119000D03*
X155310000Y-100579000D03*
X144110000Y-100579000D03*
X155310000Y-103119000D03*
X144110000Y-104389000D03*
X155310000Y-104389000D03*
X144110000Y-105659000D03*
X144110000Y-106929000D03*
X144110000Y-108199000D03*
X144110000Y-109479000D03*
X144110000Y-110729000D03*
X144110000Y-112009000D03*
X144110000Y-113279000D03*
X144110000Y-114549000D03*
X144110000Y-115819000D03*
X144110000Y-117089000D03*
X144110000Y-118359000D03*
X144110000Y-119629000D03*
%TD*%
D20*
%TO.C,J1*%
X157461000Y-100833000D03*
X203681000Y-100833000D03*
D21*
X158981000Y-99183000D03*
X158981000Y-102483000D03*
X160251000Y-99183000D03*
X160251000Y-102483000D03*
X161521000Y-99183000D03*
X161521000Y-102483000D03*
X162791000Y-99183000D03*
X162791000Y-102483000D03*
X164061000Y-99183000D03*
X164061000Y-102483000D03*
X165331000Y-99183000D03*
X165331000Y-102483000D03*
X166601000Y-99183000D03*
X166601000Y-102483000D03*
X167871000Y-99183000D03*
X167871000Y-102483000D03*
X169141000Y-99183000D03*
X169141000Y-102483000D03*
X170411000Y-99183000D03*
X170411000Y-102483000D03*
X171681000Y-99183000D03*
X171681000Y-102483000D03*
X172951000Y-99183000D03*
X172951000Y-102483000D03*
X174221000Y-99183000D03*
X174221000Y-102483000D03*
X175491000Y-99183000D03*
X175491000Y-102483000D03*
X176761000Y-99183000D03*
X176761000Y-102483000D03*
X178031000Y-99183000D03*
X178031000Y-102483000D03*
X179301000Y-99183000D03*
X179301000Y-102483000D03*
X180571000Y-99183000D03*
X180571000Y-102483000D03*
X181841000Y-99183000D03*
X181841000Y-102483000D03*
X183111000Y-99183000D03*
X183111000Y-102483000D03*
X184381000Y-99183000D03*
X184381000Y-102483000D03*
X185651000Y-99183000D03*
X185651000Y-102483000D03*
X186921000Y-99183000D03*
X186921000Y-102483000D03*
X188191000Y-99183000D03*
X188191000Y-102483000D03*
X189461000Y-99183000D03*
X189461000Y-102483000D03*
X190731000Y-99183000D03*
X190731000Y-102483000D03*
X192001000Y-99183000D03*
X192001000Y-102483000D03*
X193271000Y-99183000D03*
X193271000Y-102483000D03*
X194541000Y-99183000D03*
X194541000Y-102483000D03*
X195811000Y-99183000D03*
X195811000Y-102483000D03*
X197081000Y-99183000D03*
X197081000Y-102483000D03*
X198351000Y-99183000D03*
X198351000Y-102483000D03*
X199621000Y-99183000D03*
X199621000Y-102483000D03*
X200891000Y-99183000D03*
X200891000Y-102483000D03*
X202161000Y-99183000D03*
X202161000Y-102483000D03*
%TD*%
D18*
%TO.C,C8*%
X143902057Y-121884937D03*
X145977057Y-121884937D03*
%TD*%
D19*
%TO.C,U1*%
X141594000Y-119629000D03*
X141594000Y-118359000D03*
X141594000Y-117089000D03*
X141594000Y-115819000D03*
X141594000Y-114549000D03*
X141594000Y-113279000D03*
X141594000Y-112009000D03*
X141594000Y-110729000D03*
X141594000Y-109479000D03*
X141594000Y-108199000D03*
X141594000Y-106929000D03*
X141594000Y-105659000D03*
X141594000Y-103119000D03*
X130394000Y-103119000D03*
X130394000Y-101849000D03*
X141594000Y-100579000D03*
X141594000Y-101849000D03*
X130394000Y-100579000D03*
X130394000Y-105659000D03*
X141594000Y-104389000D03*
X130394000Y-104389000D03*
X130394000Y-106929000D03*
X130394000Y-108199000D03*
X130394000Y-109479000D03*
X130394000Y-110729000D03*
X130394000Y-112009000D03*
X130394000Y-113279000D03*
X130394000Y-114549000D03*
X130394000Y-115819000D03*
X130394000Y-117089000D03*
X130394000Y-118359000D03*
X130394000Y-119629000D03*
%TD*%
D17*
%TO.C,U3*%
X161521000Y-91701000D03*
X162791000Y-91701000D03*
X164061000Y-91701000D03*
X165331000Y-91701000D03*
X166601000Y-91701000D03*
X167871000Y-91701000D03*
X169141000Y-91701000D03*
X170421000Y-91701000D03*
X171671000Y-91701000D03*
X172951000Y-91701000D03*
X174221000Y-91701000D03*
X175491000Y-91701000D03*
X176761000Y-91701000D03*
X178031000Y-91701000D03*
X179301000Y-91701000D03*
X180571000Y-91701000D03*
X180571000Y-80501000D03*
X179301000Y-80501000D03*
X178031000Y-80501000D03*
X176761000Y-80501000D03*
X175491000Y-80501000D03*
X174221000Y-80501000D03*
X172951000Y-80501000D03*
X171671000Y-80501000D03*
X170421000Y-80501000D03*
X169141000Y-80501000D03*
X167871000Y-80501000D03*
X166601000Y-80501000D03*
X165331000Y-80501000D03*
X164061000Y-80501000D03*
X162791000Y-80501000D03*
X161521000Y-80501000D03*
%TD*%
D16*
%TO.C,C9*%
X107188958Y-100565163D03*
X107188958Y-102640163D03*
%TD*%
D17*
%TO.C,U7*%
X161521000Y-121927000D03*
X162791000Y-121927000D03*
X164061000Y-121927000D03*
X165331000Y-121927000D03*
X166601000Y-121927000D03*
X167871000Y-121927000D03*
X169141000Y-121927000D03*
X170421000Y-121927000D03*
X171671000Y-121927000D03*
X172951000Y-121927000D03*
X174221000Y-121927000D03*
X175491000Y-121927000D03*
X176761000Y-121927000D03*
X178031000Y-121927000D03*
X179301000Y-121927000D03*
X180571000Y-121927000D03*
X180571000Y-110727000D03*
X179301000Y-110727000D03*
X178031000Y-110727000D03*
X176761000Y-110727000D03*
X175491000Y-110727000D03*
X174221000Y-110727000D03*
X172951000Y-110727000D03*
X171671000Y-110727000D03*
X170421000Y-110727000D03*
X169141000Y-110727000D03*
X167871000Y-110727000D03*
X166601000Y-110727000D03*
X165331000Y-110727000D03*
X164061000Y-110727000D03*
X162791000Y-110727000D03*
X161521000Y-110727000D03*
%TD*%
%LPD*%
M02*
